<?xml version="1.0" encoding="utf-8"?>
<svg xmlns="http://www.w3.org/2000/svg" width="1024" height="1024" viewBox="156.385 160.311 199.275 135.886">
  <defs>
    <linearGradient id="gradient_1" gradientUnits="userSpaceOnUse" x1="525.61157" y1="460.45377" x2="316.61731" y2="478.83392">
      <stop offset="0" stop-color="#0E6360"/>
      <stop offset="1" stop-color="#21817F"/>
    </linearGradient>
  </defs>
  <rect x="156.671" y="160.31" width="199.019" height="135.613" style="stroke: rgb(0, 0, 0); fill: rgb(0, 21, 41);"/>
  <path fill="url(#gradient_1)" transform="scale(0.5 0.5)" d="M484.962 557.103C467.807 568.47 449.886 576.299 429.187 578.114C402.722 580.435 374.004 570.561 353.864 553.38C331.461 534.268 318.218 506.873 315.94 477.59Q315.837 476.259 315.767 474.926Q315.697 473.593 315.66 472.258Q315.623 470.924 315.619 469.589Q315.615 468.254 315.645 466.919Q315.674 465.585 315.736 464.251Q315.798 462.918 315.893 461.586Q315.988 460.255 316.117 458.926Q316.245 457.597 316.406 456.272Q316.567 454.946 316.76 453.626Q316.954 452.305 317.18 450.989Q317.406 449.674 317.665 448.364Q317.924 447.054 318.215 445.751Q318.506 444.449 318.83 443.153Q319.153 441.858 319.508 440.571Q319.864 439.285 320.251 438.007Q320.638 436.729 321.056 435.462Q321.475 434.194 321.924 432.937Q322.374 431.68 322.855 430.435Q323.335 429.189 323.847 427.956Q324.358 426.723 324.9 425.503Q325.442 424.283 326.014 423.077Q326.585 421.87 327.187 420.679Q327.788 419.487 328.419 418.31Q329.05 417.134 329.71 415.973Q330.369 414.813 331.057 413.669Q331.746 412.525 332.462 411.398Q333.178 410.272 333.922 409.163Q334.666 408.055 335.438 406.965Q336.209 405.876 337.007 404.805Q337.805 403.735 338.629 402.685Q339.453 401.635 340.303 400.605Q341.153 399.576 342.028 398.568C360.61 377.129 386.618 363.389 415.07 361.518C445.903 359.49 471.536 369.959 494.462 389.996C496.384 391.49 498.055 393.151 499.762 394.878C500.223 397.185 508.885 406.763 511.013 409.352C511.279 410.812 521.422 431.467 521.774 431.716C522.383 432.148 522.136 432.003 522.91 432.227L521.717 432.844C521.604 434.989 524.647 447.958 525.712 449.32C525.801 449.434 525.918 449.523 526.021 449.624C525.024 451.635 526.479 455.758 526.554 458.094C526.505 465.493 527.012 472.858 526.326 480.246Q526.076 482.676 525.723 485.093Q525.369 487.51 524.913 489.909Q524.456 492.309 523.898 494.687Q523.339 497.065 522.679 499.416Q522.02 501.768 521.26 504.09Q520.5 506.411 519.642 508.698Q518.783 510.985 517.828 513.233Q516.873 515.481 515.822 517.686Q514.771 519.891 513.627 522.05Q512.483 524.208 511.248 526.315Q510.013 528.422 508.689 530.475Q507.365 532.527 505.954 534.521Q504.543 536.516 503.049 538.448Q501.554 540.379 499.978 542.246Q498.402 544.112 496.748 545.909Q495.094 547.706 493.364 549.431Q492.402 550.379 491.426 551.313C489.333 552.753 486.281 554.934 484.962 557.103Z" style="paint-order: fill;"/>
  <path transform="scale(0.5 0.5)" d="M414.046 370.203C438.019 367.901 463.032 376.034 481.657 391.123C502.403 407.931 514.796 430.227 517.513 456.84C520.309 484.225 512.882 512.747 495.213 534.107C479.135 553.542 455.338 567.008 430.122 569.414C405.503 571.658 380.109 563.105 361.111 547.354Q360.163 546.571 359.235 545.766Q358.307 544.96 357.399 544.131Q356.491 543.303 355.604 542.452Q354.716 541.602 353.85 540.73Q352.984 539.858 352.14 538.965Q351.295 538.072 350.473 537.158Q349.651 536.245 348.851 535.311Q348.052 534.378 347.276 533.425Q346.499 532.472 345.747 531.5Q344.994 530.528 344.265 529.538Q343.537 528.549 342.833 527.541Q342.129 526.533 341.45 525.509Q340.771 524.484 340.118 523.443Q339.464 522.402 338.836 521.346Q338.209 520.289 337.607 519.217Q337.005 518.146 336.43 517.059Q335.855 515.973 335.307 514.873Q334.759 513.773 334.238 512.659Q333.717 511.546 333.224 510.42Q332.731 509.295 332.265 508.157Q331.799 507.02 331.362 505.871Q330.925 504.722 330.516 503.563Q330.107 502.404 329.726 501.236Q329.346 500.067 328.994 498.889Q328.643 497.711 328.32 496.525Q327.998 495.339 327.705 494.146Q327.411 492.952 327.148 491.752Q326.884 490.551 326.65 489.345Q326.415 488.138 326.211 486.926Q326.007 485.714 325.832 484.497Q325.658 483.281 325.513 482.06Q325.368 480.84 325.254 479.616Q325.127 478.373 325.032 477.126Q324.936 475.88 324.872 474.632Q324.807 473.384 324.774 472.134Q324.741 470.885 324.739 469.635Q324.737 468.385 324.767 467.135Q324.796 465.886 324.857 464.637Q324.917 463.389 325.009 462.143Q325.101 460.896 325.224 459.652Q325.347 458.408 325.501 457.168Q325.655 455.928 325.84 454.691Q326.025 453.455 326.241 452.224Q326.457 450.993 326.703 449.768Q326.95 448.543 327.227 447.324Q327.504 446.105 327.811 444.893Q328.119 443.682 328.457 442.479Q328.794 441.275 329.162 440.081Q329.53 438.886 329.927 437.701Q330.324 436.516 330.751 435.341Q331.178 434.167 331.635 433.003Q332.091 431.839 332.576 430.687Q333.061 429.535 333.575 428.396Q334.089 427.257 334.631 426.13Q335.173 425.004 335.743 423.892Q336.313 422.78 336.911 421.682Q337.508 420.584 338.133 419.502Q338.758 418.419 339.41 417.353Q340.062 416.287 340.74 415.237Q341.419 414.187 342.123 413.154Q342.827 412.122 343.557 411.107Q344.287 410.093 345.042 409.097Q345.798 408.101 346.577 407.124Q347.357 406.147 348.161 405.19Q348.925 404.27 349.711 403.369Q350.497 402.469 351.305 401.587Q352.113 400.706 352.942 399.844Q353.771 398.983 354.621 398.142Q355.471 397.3 356.341 396.48Q357.211 395.66 358.1 394.861Q358.99 394.063 359.899 393.286Q360.808 392.509 361.736 391.754Q362.663 391 363.609 390.268Q364.554 389.536 365.517 388.828Q366.481 388.12 367.461 387.435Q368.441 386.75 369.437 386.089Q370.434 385.428 371.446 384.792Q372.458 384.156 373.486 383.544Q374.513 382.933 375.555 382.346Q376.597 381.76 377.653 381.199Q378.709 380.639 379.779 380.104Q380.848 379.569 381.93 379.06Q383.012 378.551 384.106 378.069Q385.2 377.587 386.306 377.131Q387.411 376.676 388.527 376.248Q389.644 375.819 390.77 375.418Q391.896 375.017 393.032 374.643Q394.168 374.27 395.313 373.924Q396.457 373.578 397.61 373.26Q398.762 372.942 399.922 372.653Q401.082 372.363 402.249 372.101Q403.416 371.84 404.589 371.607Q405.761 371.374 406.939 371.17Q408.118 370.966 409.3 370.79Q410.483 370.614 411.67 370.468Q412.856 370.321 414.046 370.203Z" fill="#FEFEFE"/>
  <path fill="#001529" transform="scale(0.5 0.5)" d="M430.165 470.015L430.628 469.83C431.841 469.335 432.867 468.817 433.96 468.094C435.587 467.018 437.187 466.274 439.178 466.51C439.774 467.044 440.074 467.062 440.136 467.931C440.23 469.277 439.805 471.343 438.939 472.418C438.493 472.97 437.874 473.182 437.234 473.406C435.948 473.259 435.194 472.933 434.031 472.352C432.607 471.641 431.942 471.512 430.376 471.659L430.165 470.015Z"/>
  <path fill="#001529" transform="scale(0.5 0.5)" d="M410.888 465.366C408.611 464.326 405.377 464.159 403.537 462.48C403.528 462.27 403.503 462.06 403.51 461.849C403.568 460.086 404.299 458.815 405.587 457.648C406.472 457.438 406.81 457.209 407.712 457.525C410.126 458.373 410.765 460.556 411.749 462.69L410.888 465.366Z"/>
  <path fill="#001529" transform="scale(0.5 0.5)" d="M410.782 478.029C409.089 479.425 408.506 481.645 406.703 483.082C405.716 482.969 405.624 483.043 404.746 482.424C403.108 481.269 402.208 479.859 401.886 477.901C402.204 477.159 402.206 476.788 402.944 476.341C405.285 474.922 408.053 475.909 410.512 476.5L410.782 478.029Z"/>
  <path fill="#001529" transform="scale(0.5 0.5)" d="M423.38 479.994C423.431 480.139 423.48 480.285 423.535 480.428C424.534 483.046 428.658 485.703 427.478 488.562C427.032 489.644 425.6 491.11 424.454 491.463C423.015 491.907 422.79 491.724 421.614 490.982C420.765 489.208 420.829 488.06 421.437 486.251C421.747 485.328 422.124 484.421 422.488 483.518C422.656 482.197 422.843 481.234 423.38 479.994Z"/>
  <path fill="#001529" transform="scale(0.5 0.5)" d="M421.922 457.861L421.72 457.29C421.199 455.773 420.868 454.825 421.166 453.238C421.878 452.214 422.244 451.563 423.557 451.238C424.856 450.916 425.787 451.429 426.833 452.1C427.503 453.237 427.888 453.765 427.647 455.161C427.305 457.139 425.741 457.935 424.581 459.339C423.806 460.276 423.595 461.847 423.317 463.01C422.895 462.716 422.643 462.372 422.318 461.977C422.283 460.857 422.252 459.775 422.064 458.668L421.922 457.861Z"/>
  <path fill="#001529" transform="scale(0.5 0.5)" d="M396.059 534.557C395.869 530.821 396.281 527.256 397.631 523.751Q397.863 523.16 398.124 522.581Q398.385 522.002 398.675 521.437Q398.964 520.872 399.281 520.322Q399.598 519.771 399.942 519.238Q400.286 518.704 400.656 518.187Q401.025 517.671 401.42 517.174Q401.815 516.677 402.234 516.199Q402.653 515.722 403.095 515.266Q403.537 514.81 404.001 514.377Q404.465 513.943 404.95 513.533Q405.435 513.123 405.939 512.738Q406.444 512.352 406.967 511.992Q407.49 511.632 408.03 511.298Q408.57 510.964 409.126 510.658Q409.682 510.351 410.253 510.072Q410.823 509.793 411.407 509.543C417.254 507.053 423.33 507 429.222 509.381C434.846 511.654 440.298 516.189 442.724 521.832C442.413 521.751 442.086 521.715 441.79 521.589C441.63 521.521 441.519 521.37 441.382 521.262C440.738 520.754 440.113 520.542 439.354 520.253L440.053 519.974C439.819 518.119 439.116 517.352 437.653 516.199C430.779 510.781 426.097 508.703 417.29 509.854C410.945 510.684 406.022 513.068 401.946 518.156C396.887 524.471 397.503 533.68 396.62 534.769L396.059 534.557Z"/>
  <path fill="#175045" transform="scale(0.5 0.5)" d="M414.407 381.73C419.155 380.097 424.648 379.566 429.365 381.683C433.155 382.991 436.575 384.981 439.415 387.83C436.26 389.097 430.926 387.341 427.633 386.665C425.028 386.019 419.687 385.549 417.913 383.609L418.686 382.469L418.956 382.153L418.878 381.749C417.255 381.966 416.015 382.082 414.407 381.73Z"/>
  <path fill="#175045" transform="scale(0.5 0.5)" d="M343.212 448.069C341.623 445.42 340.829 441.812 340.655 438.735C340.275 431.992 343.119 425.497 347.756 420.69Q348.23 420.191 348.728 419.717Q349.227 419.243 349.748 418.795Q350.27 418.347 350.814 417.926Q351.358 417.505 351.923 417.112Q352.488 416.719 353.072 416.356Q353.655 415.992 354.257 415.658Q354.859 415.325 355.477 415.022Q356.094 414.72 356.727 414.449Q357.359 414.178 358.004 413.94Q358.65 413.702 359.306 413.497Q359.963 413.292 360.629 413.12Q361.295 412.948 361.969 412.811Q362.643 412.673 363.323 412.57Q364.003 412.467 364.688 412.399Q365.372 412.331 366.059 412.297Q366.746 412.264 367.434 412.265C372.611 412.301 378.33 413.895 382.074 417.672L381.757 418.739L381.306 418.312C377.259 414.551 372.713 414.508 367.454 414.752C360.253 415.085 352.987 416.461 348.028 422.2C344.189 426.641 342.56 432.35 341.794 438.041C341.764 438.26 341.724 438.476 341.697 438.694C341.313 441.9 343.686 444.904 343.212 448.069Z"/>
  <path fill="#1A4452" transform="scale(0.5 0.5)" d="M421.922 457.861L422.064 458.668C422.252 459.775 422.283 460.857 422.318 461.977C422.643 462.372 422.895 462.716 423.317 463.01C423 465.649 422.305 468.106 421.58 470.652C424.464 470.584 427.326 470.59 430.165 470.015L430.376 471.659L421.438 472.8Q422.446 476.387 423.38 479.994C422.843 481.234 422.656 482.197 422.488 483.518C421.904 479.212 420.579 477.151 417.949 473.851L410.782 478.029L410.512 476.5Q413.912 474.07 417.268 471.581C415.225 469.392 413.123 467.358 410.888 465.366L411.749 462.69C414.201 465.192 416.671 467.561 419.356 469.812C420.85 465.714 421.496 462.21 421.922 457.861Z"/>
  <path fill="#175045" transform="scale(0.5 0.5)" d="M342.392 511.04C340.553 507.45 340.352 501.903 341.043 498.013C342.258 491.159 346.347 485.246 352.053 481.332Q352.617 480.94 353.199 480.578Q353.782 480.215 354.383 479.883Q354.983 479.55 355.6 479.249Q356.216 478.948 356.848 478.679Q357.479 478.41 358.123 478.173Q358.768 477.936 359.423 477.733Q360.079 477.53 360.744 477.36Q361.409 477.19 362.082 477.055Q362.755 476.92 363.433 476.819Q364.112 476.718 364.795 476.652Q365.479 476.586 366.164 476.555Q366.85 476.524 367.536 476.528Q368.223 476.533 368.908 476.572Q369.593 476.611 370.275 476.685Q370.958 476.76 371.635 476.869Q372.313 476.978 372.984 477.121C379.481 478.524 385.32 482.285 388.914 487.912C388.679 487.821 388.441 487.739 388.209 487.641C386.298 486.83 385.283 484.639 383.478 483.844C379.054 481.895 365.726 482.466 360.889 484.201C352.382 487.251 347.995 494.569 344.565 502.359C343.528 504.716 342.589 506.648 342.83 509.283C342.847 509.469 342.858 509.655 342.875 509.841C342.931 510.443 342.924 510.311 343.043 510.989L342.392 511.04Z"/>
  <defs>
    <linearGradient id="gradient_2" gradientUnits="userSpaceOnUse" x1="404.75235" y1="388.23093" x2="414.86984" y2="399.08115">
      <stop offset="0" stop-color="#1A5746"/>
      <stop offset="1" stop-color="#3F9584"/>
    </linearGradient>
  </defs>
  <path fill="url(#gradient_2)" transform="scale(0.5 0.5)" d="M397.142 403.262C397.603 399.828 398.424 396.717 400.053 393.636C403.132 387.816 408.085 383.612 414.407 381.73C416.015 382.082 417.255 381.966 418.878 381.749L418.956 382.153L418.686 382.469L417.913 383.609C419.687 385.549 425.028 386.019 427.633 386.665C427.439 386.868 427.242 387.067 427.051 387.273C425.127 389.342 424.776 392.052 421.747 392.553C416.964 393.345 411.498 399.903 408.352 403.255C410.68 403.219 413.908 402.707 415.76 404.35C409.495 404.38 403.353 403.157 397.142 403.262Z"/>
  <path fill="#175045" transform="scale(0.5 0.5)" d="M452.728 511.812C452.346 511.033 452.033 510.273 451.756 509.449C449.552 502.887 449.739 495.897 452.931 489.677C456.14 483.424 462.199 478.154 469.015 476.254C475.054 474.57 482.028 475.4 487.486 478.498C492.617 481.411 496.914 486.63 498.527 492.355C496.877 491.272 496.352 489.507 495.484 487.766C486.521 484.556 476.341 480.7 467.008 485.04C459.191 488.676 454.987 498.088 452.366 505.869C451.819 507.492 452.598 509.033 453.207 510.523C453.075 510.979 453.001 511.419 452.728 511.812Z"/>
  <defs>
    <linearGradient id="gradient_3" gradientUnits="userSpaceOnUse" x1="423.59015" y1="391.4726" x2="429.30548" y2="408.7052">
      <stop offset="0" stop-color="#3F9388"/>
      <stop offset="1" stop-color="#4EABAA"/>
    </linearGradient>
  </defs>
  <path fill="url(#gradient_3)" transform="scale(0.5 0.5)" d="M427.633 386.665C430.926 387.341 436.26 389.097 439.415 387.83C444.055 391.93 446.034 398.471 446.395 404.513C446.482 405.981 446.534 407.479 446.246 408.929C446.189 407.653 446.048 406.566 445.751 405.312C443.143 403.751 420.406 404.478 415.76 404.35C413.908 402.707 410.68 403.219 408.352 403.255C411.498 399.903 416.964 393.345 421.747 392.553C424.776 392.052 425.127 389.342 427.051 387.273C427.242 387.067 427.439 386.868 427.633 386.665Z"/>
  <path fill="#2D807E" transform="scale(0.5 0.5)" d="M397.142 403.262C403.353 403.157 409.495 404.38 415.76 404.35C420.406 404.478 443.143 403.751 445.751 405.312C446.048 406.566 446.189 407.653 446.246 408.929C445.033 414.374 442.937 419.241 438.944 423.26Q438.52 423.686 438.075 424.09Q437.63 424.494 437.166 424.875Q436.701 425.256 436.218 425.614Q435.735 425.972 435.235 426.305Q434.735 426.638 434.219 426.945Q433.703 427.253 433.172 427.535Q432.641 427.816 432.097 428.071Q431.552 428.326 430.996 428.553Q430.44 428.78 429.873 428.979Q429.306 429.178 428.729 429.349Q428.153 429.519 427.569 429.661Q426.985 429.802 426.395 429.915Q425.805 430.027 425.209 430.109Q424.614 430.192 424.015 430.245Q423.417 430.297 422.816 430.32Q422.216 430.343 421.615 430.336C414.854 430.27 407.924 427.493 403.219 422.595C397.842 416.997 396.888 410.652 397.142 403.262Z"/>
  <path transform="scale(0.5 0.5)" d="M452.728 511.812C453.001 511.419 453.075 510.979 453.207 510.523C452.598 509.033 451.819 507.492 452.366 505.869C454.987 498.088 459.191 488.676 467.008 485.04C476.341 480.7 486.521 484.556 495.484 487.766C496.352 489.507 496.877 491.272 498.527 492.355Q498.764 492.912 498.974 493.479Q499.183 494.047 499.364 494.624Q499.545 495.202 499.697 495.787Q499.849 496.373 499.972 496.966Q500.095 497.558 500.188 498.156Q500.281 498.754 500.345 499.356Q500.408 499.958 500.442 500.562Q500.475 501.166 500.478 501.771Q500.482 502.376 500.455 502.981Q500.428 503.585 500.372 504.188Q500.315 504.79 500.228 505.389Q500.142 505.988 500.026 506.582Q499.909 507.175 499.764 507.763Q499.618 508.35 499.444 508.929Q499.269 509.509 499.066 510.079Q498.863 510.649 498.632 511.208C496.03 517.546 490.564 522.683 484.167 525.084C477.779 527.482 470.478 526.963 464.356 524.011C459.575 521.706 454.516 516.951 452.728 511.812Z" fill="#2D807E"/>
  <path fill="#2D807E" transform="scale(0.5 0.5)" d="M342.392 511.04L343.043 510.989C342.924 510.311 342.931 510.443 342.875 509.841C342.858 509.655 342.847 509.469 342.83 509.283C342.589 506.648 343.528 504.716 344.565 502.359C347.995 494.569 352.382 487.251 360.889 484.201C365.726 482.466 379.054 481.895 383.478 483.844C385.283 484.639 386.298 486.83 388.209 487.641C388.441 487.739 388.679 487.821 388.914 487.912C391.703 490.377 392.856 495.603 393.124 499.172C393.644 506.102 391.642 513.276 387.028 518.56C382.508 523.738 376.018 526.428 369.222 526.716C361.737 527.033 353.889 524.942 348.263 519.828C345.639 517.442 343.511 514.413 342.392 511.04Z"/>
  <defs>
    <linearGradient id="gradient_4" gradientUnits="userSpaceOnUse" x1="356.46524" y1="415.9021" x2="375.2612" y2="458.10635">
      <stop offset="0" stop-color="#205747"/>
      <stop offset="1" stop-color="#2E9995"/>
    </linearGradient>
  </defs>
  <path fill="url(#gradient_4)" transform="scale(0.5 0.5)" d="M343.212 448.069C343.686 444.904 341.313 441.9 341.697 438.694C341.724 438.476 341.764 438.26 341.794 438.041C342.56 432.35 344.189 426.641 348.028 422.2C352.987 416.461 360.253 415.085 367.454 414.752C372.713 414.508 377.259 414.551 381.306 418.312L381.757 418.739L382.074 417.672Q382.528 418.011 382.965 418.371Q383.402 418.73 383.822 419.111Q384.241 419.491 384.642 419.891Q385.043 420.291 385.424 420.709Q385.806 421.128 386.167 421.564Q386.528 422 386.868 422.453Q387.207 422.906 387.525 423.374Q387.843 423.843 388.139 424.326Q388.434 424.809 388.706 425.306Q388.978 425.802 389.226 426.311Q389.473 426.82 389.697 427.341Q389.92 427.861 390.119 428.391Q390.317 428.921 390.49 429.461Q390.663 430 390.81 430.547Q390.957 431.093 391.078 431.647Q391.199 432.2 391.293 432.758C392.314 439.175 390.608 445.602 386.742 450.8Q386.353 451.32 385.939 451.82Q385.525 452.319 385.086 452.798Q384.647 453.276 384.185 453.732Q383.723 454.188 383.238 454.62Q382.754 455.052 382.248 455.459Q381.742 455.866 381.217 456.248Q380.692 456.629 380.148 456.984Q379.604 457.338 379.043 457.665Q378.482 457.992 377.906 458.29Q377.329 458.589 376.738 458.858Q376.148 459.127 375.544 459.366Q374.941 459.605 374.326 459.814Q373.711 460.022 373.087 460.2Q372.462 460.377 371.83 460.523Q371.197 460.669 370.558 460.783Q369.919 460.897 369.275 460.979C362.364 461.92 354.951 460.175 349.434 455.818C346.985 453.884 344.163 451.107 343.212 448.069Z"/>
  <defs>
    <linearGradient id="gradient_5" gradientUnits="userSpaceOnUse" x1="413.07626" y1="509.84152" x2="427.79364" y2="556.24829">
      <stop offset="0" stop-color="#1E4C3E"/>
      <stop offset="1" stop-color="#2DA09B"/>
    </linearGradient>
  </defs>
  <path fill="url(#gradient_5)" transform="scale(0.5 0.5)" d="M396.059 534.557L396.62 534.769C397.503 533.68 396.887 524.471 401.946 518.156C406.022 513.068 410.945 510.684 417.29 509.854C426.097 508.703 430.779 510.781 437.653 516.199C439.116 517.352 439.819 518.119 440.053 519.974L439.354 520.253C440.113 520.542 440.738 520.754 441.382 521.262C441.519 521.37 441.63 521.521 441.79 521.589C442.086 521.715 442.413 521.751 442.724 521.832C445.777 526.314 446.129 534.006 445.045 539.22C443.739 545.509 439.814 550.941 434.467 554.443C428.847 558.125 421.442 559.622 414.875 558.047C408.378 556.488 402.431 551.946 399.132 546.145Q398.389 544.823 397.819 543.417Q397.249 542.012 396.86 540.546Q396.472 539.08 396.27 537.577Q396.069 536.074 396.059 534.557Z"/>
  <defs>
    <linearGradient id="gradient_6" gradientUnits="userSpaceOnUse" x1="466.59775" y1="415.46503" x2="482.74368" y2="460.59171">
      <stop offset="0" stop-color="#194F40"/>
      <stop offset="1" stop-color="#259494"/>
    </linearGradient>
  </defs>
  <path fill="url(#gradient_6)" transform="scale(0.5 0.5)" d="M475.308 413.195C480.798 413.417 485.716 415.122 490.048 418.565Q490.551 418.966 491.033 419.391Q491.515 419.816 491.975 420.265Q492.435 420.714 492.872 421.185Q493.31 421.656 493.723 422.149Q494.136 422.641 494.524 423.153Q494.913 423.666 495.275 424.197Q495.637 424.728 495.972 425.276Q496.308 425.824 496.615 426.389Q496.923 426.953 497.202 427.532Q497.481 428.111 497.731 428.703Q497.981 429.296 498.202 429.9Q498.422 430.503 498.611 431.118Q498.801 431.732 498.96 432.355Q499.119 432.977 499.247 433.607Q499.375 434.237 499.471 434.873Q499.568 435.508 499.632 436.148Q499.693 436.773 499.723 437.401Q499.752 438.029 499.749 438.657Q499.747 439.285 499.712 439.913Q499.677 440.54 499.609 441.165Q499.542 441.79 499.443 442.41Q499.344 443.031 499.214 443.645Q499.083 444.26 498.921 444.867Q498.759 445.474 498.566 446.072Q498.373 446.67 498.15 447.258Q497.927 447.845 497.674 448.42Q497.421 448.995 497.139 449.557Q496.856 450.118 496.546 450.664Q496.235 451.211 495.897 451.74Q495.559 452.27 495.194 452.781Q494.829 453.293 494.439 453.785Q494.048 454.277 493.633 454.749C488.637 460.438 482.606 462.441 475.285 462.797C469.026 462.497 463.583 461.194 458.675 456.986C453.748 452.762 450.881 446.689 450.434 440.245Q450.391 439.617 450.379 438.988Q450.367 438.359 450.386 437.731Q450.405 437.102 450.456 436.475Q450.506 435.848 450.588 435.224Q450.67 434.6 450.783 433.981Q450.895 433.362 451.039 432.75Q451.182 432.137 451.356 431.532Q451.529 430.928 451.733 430.332Q451.936 429.737 452.169 429.153Q452.402 428.568 452.664 427.996Q452.925 427.424 453.215 426.866Q453.505 426.307 453.822 425.764Q454.139 425.221 454.483 424.694Q454.827 424.167 455.197 423.658Q455.566 423.149 455.961 422.659Q456.356 422.169 456.774 421.699C461.823 415.936 467.899 413.774 475.308 413.195Z"/>
  <path transform="scale(0.5 0.5)" d="M494.462 389.996C510.973 381.302 532.15 373.587 549.662 366.012L646.183 323.865C651.176 337.454 657.614 350.567 663.201 363.932Q686.17 417.837 707.896 472.254Q691.667 479.248 675.327 485.98Q677.912 505.131 680.908 524.223C682.581 534.532 684.743 545.081 685.614 555.476C685.773 557.364 686.19 560.046 685.135 561.714C683.775 563.865 681.531 564.536 679.187 564.994C671.811 566.436 663.966 566.88 656.477 567.715L611.152 572.763C574.75 577.084 538.34 582.743 501.866 586.241C498.409 586.573 490.198 587.452 487.342 585.297C483.447 582.36 485.208 562.42 484.962 557.103C486.281 554.934 489.333 552.753 491.426 551.313Q492.402 550.379 493.364 549.431Q495.094 547.706 496.748 545.909Q498.402 544.112 499.978 542.246Q501.554 540.379 503.049 538.448Q504.543 536.516 505.954 534.521Q507.365 532.527 508.689 530.475Q510.013 528.422 511.248 526.315Q512.483 524.208 513.627 522.049Q514.771 519.891 515.822 517.686Q516.873 515.481 517.828 513.233Q518.783 510.985 519.642 508.698Q520.5 506.411 521.26 504.09Q522.02 501.768 522.679 499.416Q523.339 497.065 523.898 494.687Q524.456 492.309 524.913 489.909Q525.369 487.51 525.723 485.093Q526.076 482.676 526.326 480.246C527.012 472.858 526.505 465.493 526.554 458.094C526.479 455.758 525.024 451.635 526.021 449.624C525.918 449.523 525.801 449.434 525.712 449.32C524.647 447.958 521.604 434.989 521.717 432.844L522.91 432.227C522.136 432.003 522.383 432.148 521.774 431.716C521.422 431.467 511.279 410.812 511.013 409.352C508.885 406.763 500.223 397.185 499.762 394.878C498.055 393.151 496.384 391.49 494.462 389.996Z" style="fill: rgb(22, 119, 255);"/>
  <path fill="#FEFEFE" transform="scale(0.5 0.5)" d="M522.91 432.227Q531.626 431.479 540.294 430.302Q537.305 439.617 534.121 448.868C531.427 449.142 528.724 449.482 526.021 449.624C525.918 449.523 525.801 449.434 525.712 449.32C524.647 447.958 521.604 434.989 521.717 432.844L522.91 432.227Z"/>
  <path fill="#FEFEFE" transform="scale(0.5 0.5)" d="M634.03 336.431C637.874 337.75 647.435 345.553 651.261 348.306C647.092 350.736 642.612 352.584 638.142 354.375L636.027 354.937C631.082 353.2 625.345 346.146 621.782 342.313C625.917 340.436 629.994 338.515 634.03 336.431Z"/>
  <path fill="#FEFEFE" transform="scale(0.5 0.5)" d="M637.813 418.215C638.758 418.071 639.266 418.115 640.191 418.253C640.314 421.096 636.085 432.888 635.07 436.636Q628.421 437.214 621.801 438.06L618.706 438.015C618.444 436.159 623.226 423.019 624.11 420.24C628.67 419.395 633.204 418.737 637.813 418.215Z"/>
  <path fill="#FEFEFE" transform="scale(0.5 0.5)" d="M613.466 345.458C618.24 348.345 623.807 354.84 627.921 358.794L613.458 365.565C613.322 365.574 613.185 365.6 613.048 365.59C610.446 365.412 601.104 354.897 599.095 352.679Q606.165 348.838 613.466 345.458Z"/>
  <path fill="#FEFEFE" transform="scale(0.5 0.5)" d="M611.867 421.702C613.092 421.487 613.972 421.493 615.201 421.682C615.944 424.034 611.207 436.159 610.163 439.31C605.667 440.109 601.147 440.682 596.62 441.267C595.208 441.405 594.367 441.691 593.074 441.062C594.042 435.308 597.048 429.808 598.319 424.019L598.489 423.22C602.917 422.582 607.419 422.205 611.867 421.702Z"/>
  <path fill="#FEFEFE" transform="scale(0.5 0.5)" d="M590.456 424.261L590.658 424.461C590.737 427.24 585.772 439.144 584.646 442.978C579.317 443.783 573.948 444.36 568.597 445.003L568.04 444.263C568.589 438.312 571.703 431.732 573.752 426.12C579.319 425.662 584.903 424.885 590.456 424.261Z"/>
  <path fill="#FEFEFE" transform="scale(0.5 0.5)" d="M664.354 414.74C664.837 414.606 665.26 414.746 665.747 414.825C666.532 418.182 661.641 429.44 660.269 432.93C655.326 433.933 650.257 434.546 645.27 435.314C644.755 435.413 644.379 435.275 643.875 435.163C643.23 431.307 647.634 420.738 648.959 416.702Q656.65 415.67 664.354 414.74Z"/>
  <path fill="#FEFEFE" transform="scale(0.5 0.5)" d="M565.028 427.332C565.484 428.567 560.011 443.528 559.175 446.051C553.714 446.874 548.177 447.281 542.68 447.801C542.43 447.636 542.352 447.301 542.205 447.04C543.757 441.051 545.979 435.008 548.294 429.271C553.814 428.375 559.457 427.792 565.028 427.332Z"/>
  <path fill="#FEFEFE" transform="scale(0.5 0.5)" d="M514.558 388.878C519.713 392.865 524.607 397.169 529.541 401.423Q520.632 406.216 511.013 409.352C508.885 406.763 500.223 397.185 499.762 394.878C504.778 393.182 509.891 391.41 514.558 388.878Z"/>
  <path fill="#FEFEFE" transform="scale(0.5 0.5)" d="M590.539 356.015Q597.774 362.402 604.783 369.036C599.489 371.944 593.785 374.17 588.151 376.323C583.103 372.855 578.32 367.74 573.696 363.648Q582.031 359.64 590.539 356.015Z"/>
  <path fill="#FEFEFE" transform="scale(0.5 0.5)" d="M565.542 367.514C568.272 368.357 577.443 377.002 580.37 379.465C574.713 382.535 569 384.91 562.914 386.998C560.687 386.214 550.903 376.741 547.926 374.395Q556.613 370.645 565.542 367.514Z"/>
  <path fill="#FEFEFE" transform="scale(0.5 0.5)" d="M539.068 377.909C542.008 378.327 552.39 388.062 554.99 390.453Q546.643 394.502 538.118 398.159L537.856 398.272C535.728 398.074 525.424 387.782 522.753 385.548C528.316 383.232 533.774 380.793 539.068 377.909Z"/>
  <path transform="scale(0.5 0.5)" d="M664.329 493.763C665.603 493.82 666.562 493.813 667.691 494.495C668.244 495.94 667.998 496.583 667.762 498.088C666.977 497.966 666.214 497.767 665.442 497.583C664.323 496.244 664.488 495.47 664.329 493.763Z" style="fill: rgb(255, 255, 255);"/>
  <path transform="scale(0.5 0.5)" d="M662.564 477.808C664.115 478.005 664.754 477.902 665.965 478.935C666.221 480.281 665.861 480.997 665.395 482.239C663.939 481.981 663.564 481.956 662.439 481.03C661.999 479.745 662.243 479.079 662.564 477.808Z" style="fill: rgb(255, 255, 255);"/>
  <path fill="#FEFEFE" transform="scale(0.5 0.5)" d="M619.389 491.732L620.454 491.983C621.109 493.1 621.037 493.253 620.928 494.562C620.231 495.377 619.922 495.843 618.864 496.186C614.543 497.586 608.466 497.585 603.902 498.133L565.007 502.694C564.683 502.494 564.327 502.011 564.065 501.727C563.735 500.302 563.442 499.809 563.977 498.417C569.481 496.584 576.439 496.572 582.259 495.911L619.389 491.732Z"/>
  <path fill="#FEFEFE" transform="scale(0.5 0.5)" d="M623.966 505.215C624.26 505.259 624.917 505.653 625.195 505.791C625.93 506.985 626.24 507.308 626.268 508.687C626.002 508.952 625.799 509.301 625.47 509.482C624.102 510.233 562.463 517.004 555.668 517.766L554.598 517.743C554.324 517.444 553.907 517.027 553.74 516.662C553.237 515.558 553.427 515.089 553.913 514.116C555.207 513.273 556.387 512.931 557.902 512.639C564.46 511.377 571.589 511.236 578.258 510.479L623.966 505.215Z"/>
  <path fill="#FEFEFE" transform="scale(0.5 0.5)" d="M625.752 519.186C626.479 519.084 627.258 518.938 627.997 518.923C629.256 518.898 629.72 519.068 630.632 519.904C630.786 521.273 630.753 521.293 630.032 522.474C628.692 523.281 627.531 523.743 625.995 524.059C619.372 525.425 611.952 525.603 605.201 526.382C587.174 528.461 569.106 530.263 551.099 532.504C550.449 532.593 549.793 532.697 549.138 532.748C547.789 532.855 547.452 532.922 546.397 532.034C546.084 530.809 545.953 530.542 546.32 529.353C551.262 526.233 613.788 520.485 625.752 519.186Z"/>
</svg>