<?xml version="1.0" encoding="utf-8"?>
<svg xmlns="http://www.w3.org/2000/svg" width="1024" height="1024" viewBox="150.174 158.5 211.438 182.211">
  <rect x="149.717" y="158.043" width="211.894" height="186.777" style="stroke: rgb(0, 0, 0); fill: rgb(0, 21, 41);"/>
  <path transform="scale(0.5 0.5)" d="M552.961 653.568C553.446 653.773 553.779 654.039 554.197 654.354C555.097 661.009 554.431 668.405 554.48 675.16C556.489 675.021 559.9 674.393 561.544 675.511L561.421 676.992C558.438 677.077 555.458 677.029 552.475 676.993C551.782 670.993 551.082 659.121 552.961 653.568Z" style="fill: rgb(255, 255, 255);"/>
  <path transform="scale(0.5 0.5)" d="M676.522 653.984C679.887 653.91 682.906 653.792 686.157 654.81L686.305 655.194C683.728 655.912 681.289 655.91 678.643 655.929L678.647 664.414C679.435 664.4 680.227 664.381 681.015 664.402C682.448 664.439 683.327 664.603 684.341 665.658L683.989 666.325L682.581 666.151C681.38 666.26 680.254 666.469 679.075 666.71C678.108 668.801 678.817 671.749 678.64 674.033C678.545 675.257 678.45 676.056 677.52 676.903C675.363 674.268 676.474 658.256 676.522 653.984Z" style="fill: rgb(255, 255, 255);"/>
  <path transform="scale(0.5 0.5)" d="M660.629 654.033C663.907 653.923 667.994 653.433 670.997 654.998L670.464 655.516C667.888 655.986 665.46 655.973 662.86 655.926L662.845 664.468C663.902 664.442 665.001 664.381 666.054 664.481C667.161 664.586 668.157 664.738 668.917 665.573L668.441 666.067L667.113 665.999C666.398 665.991 665.448 665.875 664.759 666.024C660.523 666.942 663.986 674.48 662.499 677.002L661.374 677.064C659.663 674.573 660.611 658.043 660.629 654.033Z" style="fill: rgb(255, 255, 255);"/>
  <path d="M 224.169 326.967 C 225.542 326.937 226.683 326.878 227.996 327.336 L 227.953 327.612 C 227.008 327.895 226.127 327.899 225.146 327.916 L 225.125 332.45 C 226.061 332.448 227.574 332.253 228.393 332.713 L 228.275 333.063 C 227.651 333.28 227.215 333.388 226.55 333.379 C 226.1 333.372 225.72 333.374 225.274 333.463 C 224.892 334.284 225.048 335.399 225.064 336.291 C 225.065 336.457 225.061 336.752 225.099 336.908 C 225.418 338.211 227.782 337.27 228.731 337.824 L 228.727 338.338 C 227.354 338.806 225.593 338.65 224.138 338.673 C 224.108 334.775 224.014 330.863 224.169 326.967 Z" style="fill: rgb(255, 255, 255);"/>
  <path transform="scale(0.5 0.5)" d="M357.771 653.618L359.228 654.301C359.914 657.065 355.754 664.356 355.019 667.663C354.328 670.766 354.761 673.861 354.069 676.934L353.289 677.336C351.282 674.976 352.499 669.465 351.441 666.24C351.387 666.076 351.326 665.914 351.269 665.751C350.105 662.645 347.928 657.992 347.979 654.736L349.038 654.418C351.525 656.149 352.744 662.851 353.64 665.83C354.858 661.682 356.034 657.587 357.771 653.618Z" style="fill: rgb(255, 255, 255);"/>
  <path transform="scale(0.5 0.5)" d="M708.932 653.909C711.988 653.876 714.902 653.633 717.87 654.54L718.072 655.101C715.719 655.755 713.498 655.707 711.08 655.714L711.076 664.369C712.966 664.364 714.729 664.284 716.553 664.832L716.829 665.488L716.246 666.2C714.755 666.349 713.272 666.451 711.776 666.529C710.72 667.688 711.056 669.281 710.997 670.82C710.974 672.005 710.835 673.03 711.506 674.071C713.698 675.409 715.487 674.925 717.906 674.618L718.464 675.247C718.464 675.906 718.545 675.52 717.874 676.273C714.95 677.004 711.871 676.781 708.874 676.766L708.932 653.909Z" style="fill: rgb(255, 255, 255);"/>
  <path d="M 242.186 326.723 C 243.02 326.76 243.936 326.749 244.595 327.336 C 245.067 327.756 245.245 328.334 245.24 328.942 C 244.351 329.123 243.147 327.935 242.028 327.955 L 241.705 328.353 C 241.515 330.736 243.44 332.127 244.776 333.799 C 245.377 334.552 245.868 335.405 245.671 336.41 C 245.453 337.515 244.735 338.083 243.853 338.683 C 242.992 338.759 242.21 338.814 241.456 338.327 C 240.889 337.96 240.659 337.335 240.49 336.717 C 240.969 336.31 242.905 337.501 243.72 337.496 C 244.106 337.493 244.151 337.318 244.398 337.066 C 245.153 333.838 240.782 332.572 240.62 329.705 C 240.547 328.413 241.324 327.555 242.186 326.723 Z" style="fill: rgb(255, 255, 255);"/>
  <path d="M 349.292 326.497 C 349.855 326.539 350.248 326.571 350.771 326.811 C 351.62 327.198 352.209 327.97 352.477 328.835 C 352.425 329.497 352.264 329.714 351.837 330.212 C 351.037 330.04 350.767 328.089 349.884 327.462 C 349.345 327.567 349.058 327.741 348.7 328.169 C 347.741 329.313 347.777 333.206 347.947 334.69 C 348.062 335.685 348.242 336.485 349.069 337.114 C 349.811 337.28 350.22 337.051 350.877 336.753 C 351 335.909 351.074 335.146 351.794 334.602 L 351.973 334.749 C 352.121 335.29 352.129 335.679 352.023 336.224 C 351.825 337.238 351.516 337.897 350.649 338.493 C 350.232 338.585 349.892 338.664 349.468 338.531 C 348.722 338.295 347.805 337.64 347.421 336.945 C 346.302 334.917 346.476 330.64 347.256 328.505 C 347.67 327.372 348.221 326.991 349.292 326.497 Z" style="fill: rgb(255, 255, 255);"/>
  <path transform="scale(0.5 0.5)" d="M619.133 661.649Q619.654 660.401 620.19 659.159C620.991 657.256 621.671 655.793 623.055 654.239L623.778 654.216L623.249 654.355L623.907 654.654C624.006 656.972 621.091 662.283 620.123 664.642C621.42 667.755 625.153 673.772 624.634 677.052L623.286 677.42C621.812 674.188 620.553 670.854 619.244 667.552C618.149 670.455 616.972 675.405 614.45 677.329L613.788 676.958C613.514 673.718 616.816 667.976 618.15 664.781C616.267 661.141 614.447 657.495 612.744 653.767C613.634 653.829 614.297 653.951 615.151 654.168C617.049 656.171 617.987 659.148 619.133 661.649Z" style="fill: rgb(255, 255, 255);"/>
  <path transform="scale(0.5 0.5)" d="M392.835 653.603L394.278 654.223C394.547 654.881 394.597 654.931 394.756 655.745C395.656 660.351 395.913 671.263 393.18 675.297C392.4 676.447 391.282 677.322 389.868 677.511C388.412 677.706 386.929 677.349 385.811 676.36C382.325 673.276 383.701 663.208 383.752 658.703C383.752 657.056 383.683 655.72 384.415 654.193L384.934 654.091C387.73 657.134 385.454 667.867 386.152 672.342C386.353 673.629 386.986 674.717 388.224 675.278C389.336 675.782 389.648 675.613 390.663 675.154C394.363 670.482 392.07 659.941 392.772 654.077C392.791 653.919 392.814 653.761 392.835 653.603Z" style="fill: rgb(255, 255, 255);"/>
  <path transform="scale(0.5 0.5)" d="M539.072 653.109C539.86 653.456 540.118 653.696 540.709 654.29C541.824 659.883 545.807 672.378 545.306 677.287L544.467 677.491C543.08 676.452 542.659 673.407 542.194 671.766L541.118 671.276C539.674 671.246 538.404 671.117 537.064 671.762C535.951 673.017 535.739 674.146 535.371 675.767C535.148 676.749 535.409 676.259 534.5 677.076L533.312 676.969C532.503 675.052 537.929 656.141 539.072 653.109Z" style="fill: rgb(255, 255, 255);"/>
  <path transform="scale(0.5 0.5)" d="M539.276 658.874C540.541 660.412 540.927 663.65 541.257 665.63C541.549 667.389 541.977 668.282 540.932 669.74L538.134 669.47L537.453 668.573C537.086 665.396 538.509 661.973 539.276 658.874Z" style="fill: rgb(0, 21, 41);"/>
  <path transform="scale(0.5 0.5)" d="M524.455 671.177C524.427 666.83 523.16 656.405 525.793 653.146C527.577 656.908 526.721 672.599 526.617 677.558C526.385 677.5 526.145 677.467 525.92 677.384C523.667 676.56 518.491 663.056 517.14 660.068C517.535 664.084 518.487 673.512 516.707 676.992L516.081 677.053C514.608 673.697 514.973 657.188 515.859 653.157C516.52 653.394 517.061 653.431 517.495 654.024C519.64 656.957 522.354 666.881 524.455 671.177Z" style="fill: rgb(255, 255, 255);"/>
  <path transform="scale(0.5 0.5)" d="M430.879 654.011C433.089 653.857 435.969 653.566 437.999 654.613C440.029 655.66 440.846 657.837 441.414 659.912C441.83 661.428 441.928 663.095 440.936 664.428C439.447 666.429 436.413 667.283 434.087 667.583C433.888 667.609 433.688 667.629 433.489 667.652L432.951 668.474C432.982 670.828 433.374 673.866 432.795 676.128C432.605 676.874 432.239 676.866 431.621 677.225L430.94 676.702C430.294 669.255 430.795 661.493 430.879 654.011Z" style="fill: rgb(255, 255, 255);"/>
  <path transform="scale(0.5 0.5)" d="M432.997 655.725C435.116 655.775 436.397 655.885 438.06 657.266C439.529 659.806 438.895 661.807 438.226 664.546C437.627 664.812 437.262 664.992 436.611 665.195C435.348 665.589 434.682 665.556 433.522 664.984C432.222 662.519 432.918 658.498 432.997 655.725Z" style="fill: rgb(0, 21, 41);"/>
  <path transform="scale(0.5 0.5)" d="M402.534 654.028Q404.03 653.98 405.527 653.988C408.116 653.998 409.803 654.516 411.604 656.465C412.729 657.683 413.141 658.93 413.038 660.579C412.871 663.227 411.132 665.279 409.177 666.854L409.542 667.503C410.988 670.139 413.329 674.244 412.416 677.247L411.588 677.185C410.662 676.268 410.639 675.578 410.293 674.36C409.762 673.002 409.262 671.553 408.589 670.26C408.002 669.134 407.375 668.141 406.109 667.74L405.292 668.425C404.394 671.199 404.488 674.186 404.287 677.076L403.779 677.352C401.552 674.977 402.52 658.337 402.534 654.028Z" style="fill: rgb(255, 255, 255);"/>
  <path transform="scale(0.5 0.5)" d="M404.702 655.822C405.742 655.822 406.909 655.772 407.905 656.104C408.973 656.461 409.965 657.4 410.32 658.479C410.973 660.466 410.065 662.761 409.335 664.587C408.911 664.756 408.426 664.962 407.988 665.07C406.646 665.4 406.307 665.445 405.149 664.835C403.962 662.368 404.61 658.568 404.702 655.822Z" style="fill: rgb(0, 21, 41);"/>
  <path transform="scale(0.5 0.5)" d="M464.368 653.911C467.671 653.787 470.445 653.644 472.959 656.118C474.118 657.257 474.796 658.729 474.723 660.376C474.588 663.453 473.087 665.285 470.859 667.229C471.926 669.307 473.185 671.458 473.836 673.708C474.291 675.28 474.719 676.285 473.948 677.743L474.019 676.908L473.04 676.836L472.004 674.734C471.005 672.393 469.907 668.614 467.472 667.494C464.649 668.391 467.604 674.995 465.698 677.197L464.804 677.204C463.416 674.641 464.303 658.281 464.368 653.911Z" style="fill: rgb(255, 255, 255);"/>
  <path transform="scale(0.5 0.5)" d="M466.379 655.75C467.541 655.797 468.856 655.774 469.926 656.283C470.97 656.78 471.83 657.8 472.136 658.913C472.678 660.888 471.98 662.986 471.207 664.789C470.656 665.042 470.324 665.209 469.726 665.413C468.466 665.844 467.954 665.837 466.784 665.251C465.521 662.711 466.271 658.579 466.379 655.75Z" style="fill: rgb(0, 21, 41);"/>
  <path transform="scale(0.5 0.5)" d="M578.663 654.491C580.537 654.434 582.586 654.259 584.439 654.57C585.962 654.825 587.558 655.737 588.336 657.116C589.877 659.849 588.265 661.732 587.493 664.328C587.101 665.647 588.805 668.149 589.478 669.359C589.552 671.133 589.074 672.574 588.562 674.259C585.428 677.068 582.535 676.882 578.545 677.025L578.663 654.491Z" style="fill: rgb(255, 255, 255);"/>
  <path transform="scale(0.5 0.5)" d="M581.085 656.348C581.905 656.43 582.739 656.491 583.55 656.639C584.585 656.828 585.532 657.355 586.037 658.302C587.047 660.193 586.311 662.229 585.784 664.155C584.37 664.446 583.243 664.777 581.824 664.301C580.237 662.204 580.94 658.878 581.085 656.348Z" style="fill: rgb(0, 21, 41);"/>
  <path transform="scale(0.5 0.5)" d="M581.021 666.435C582.274 666.389 584.102 666.185 585.239 666.748C585.981 667.115 586.645 667.656 586.922 668.442C587.609 670.394 586.727 672.283 585.988 674.079C584.452 674.636 583.129 675.108 581.582 674.477C580.341 672.49 580.953 668.773 581.021 666.435Z" style="fill: rgb(0, 21, 41);"/>
  <path transform="scale(0.5 0.5)" d="M600.022 654.006C600.885 653.979 601.942 653.872 602.786 654.043C604.085 654.305 604.921 655.114 605.626 656.191C608.073 659.926 607.531 667.437 606.725 671.709C606.217 674.402 605.44 675.589 603.158 677.12C602.297 677.119 601.299 677.178 600.456 677.009C599.158 676.749 598.183 676.004 597.503 674.886C595.017 670.801 595.372 663.51 596.374 658.967C596.945 656.375 597.846 655.464 600.022 654.006Z" style="fill: rgb(255, 255, 255);"/>
  <path transform="scale(0.5 0.5)" d="M600.667 655.837C601.47 655.973 602.209 656.229 602.985 656.473C604.754 658.24 604.845 661.02 604.933 663.407C605.073 667.205 605.188 672.211 602.486 675.095C601.419 675.054 600.797 674.859 599.834 674.401C598.452 672.666 598.251 670.572 598.105 668.407C597.83 664.32 597.845 658.982 600.667 655.837Z" style="fill: rgb(0, 21, 41);"/>
  <path transform="scale(0.5 0.5)" d="M646.476 653.945C647.279 653.899 648.243 653.786 649.034 653.924C650.208 654.129 651.117 654.778 651.829 655.708C654.737 659.509 654.176 667.611 653.291 672.123C652.786 674.699 651.697 675.681 649.567 677.05C648.661 677.072 647.588 677.167 646.7 676.999C645.516 676.774 644.692 676.127 644.004 675.155C641.323 671.365 641.835 663.946 642.734 659.568C643.311 656.76 644.055 655.485 646.476 653.945Z" style="fill: rgb(255, 255, 255);"/>
  <path transform="scale(0.5 0.5)" d="M646.978 655.768C648.18 655.88 648.805 656.055 649.832 656.694C651.346 658.791 651.595 661.302 651.699 663.836C651.853 667.563 651.782 672.398 649.178 675.247C648.206 675.168 647.403 675.2 646.556 674.666C644.971 673.664 644.531 670.224 644.364 668.542C643.95 664.384 644.241 659.063 646.978 655.768Z" style="fill: rgb(0, 21, 41);"/>
  <path transform="scale(0.5 0.5)" d="M500.847 653.51C501.848 653.506 503.074 653.378 504.042 653.603C505.084 653.846 505.959 654.499 506.574 655.365C509.335 659.255 508.985 666.743 508.234 671.287C507.758 674.16 507.133 675.388 504.76 677.116C503.964 677.197 503.049 677.341 502.253 677.261C500.855 677.121 499.967 676.542 499.098 675.458C496.747 672.528 497.117 666.781 497.344 663.194C497.589 659.326 497.771 656.201 500.847 653.51Z" style="fill: rgb(255, 255, 255);"/>
  <path transform="scale(0.5 0.5)" d="M501.473 655.317C502.741 655.478 503.455 655.629 504.523 656.344C505.403 657.573 505.781 658.548 506.044 660.045C506.825 664.479 506.916 671.636 504.222 675.384C503.198 675.295 502.403 675.318 501.512 674.754C500.509 674.119 500.033 672.543 499.791 671.446C498.769 666.813 498.806 659.33 501.473 655.317Z" style="fill: rgb(0, 21, 41);"/>
  <path transform="scale(0.5 0.5)" d="M369.073 654.033C370.033 653.918 371.029 653.859 371.995 653.929C373.354 654.028 374.417 654.714 375.219 655.804C377.989 659.574 377.532 666.87 376.752 671.28C376.244 674.148 375.62 675.455 373.229 677.121C372.505 677.18 371.778 677.24 371.051 677.221C369.605 677.183 368.314 676.579 367.349 675.479C364.677 672.434 364.919 666.802 365.264 662.976C365.613 659.106 366.013 656.602 369.073 654.033Z" style="fill: rgb(255, 255, 255);"/>
  <path transform="scale(0.5 0.5)" d="M369.981 655.845C371.355 655.955 372.062 655.952 373.198 656.819C374.648 658.974 374.877 661.586 374.932 664.137C375.015 667.963 374.94 672.456 372.169 675.3C370.908 675.159 370.241 675.003 369.18 674.296C367.884 672.435 367.545 670.213 367.385 667.98C367.103 664.013 367.278 658.931 369.981 655.845Z" style="fill: rgb(0, 21, 41);"/>
  <path transform="scale(0.5 0.5)" d="M672.307 596.418C673.351 596.765 674.285 597.013 675.108 597.791C675.788 598.433 676.027 598.982 676.159 599.89C677.152 606.749 676.777 632.329 676.279 639.8C675.129 641.06 674.263 641.134 672.657 641.637C670.978 641.299 669.69 641.104 668.336 640.01C667.408 637.55 667.616 601.829 668.484 598.892C669.498 597.425 670.724 597.055 672.307 596.418Z" style="fill: rgb(255, 255, 255);"/>
  <path transform="scale(0.5 0.5)" d="M430.975 597.163C431.687 597.413 432.197 597.75 432.829 598.153C434.807 602.032 433.551 613.969 433.51 618.922C437.192 615.233 450.248 598.453 453.589 597.671C454.395 597.482 454.627 597.857 455.276 598.253L455.606 599.625C455.031 602.409 442.637 615.433 440.217 618.227Q445.705 625.444 451.372 632.523Q452.996 634.48 454.586 636.465C455.713 637.885 456.725 639.037 456.503 640.916C455.935 641.441 455.766 641.922 454.924 641.817C451.015 641.33 440.201 625.426 437.298 621.606C436.151 622.768 435.176 624 434.184 625.295C434.259 629.136 434.477 633.075 434.275 636.908C434.186 638.588 434.131 640.311 432.808 641.504C431.444 641.897 431.449 641.993 430.178 641.401C429.856 640.78 429.684 640.243 429.596 639.546C429.157 636.085 429.051 602.557 429.608 599.684C429.803 598.678 430.371 597.96 430.975 597.163Z" style="fill: rgb(255, 255, 255);"/>
  <path transform="scale(0.5 0.5)" d="M511.479 596.283C511.805 596.347 512.131 596.403 512.455 596.475C516.183 597.307 523.544 612.233 525.961 616.232C529.501 611.213 533.018 601.822 537.053 598.073C537.899 597.286 538.646 596.848 539.844 596.979C541.145 597.121 541.944 597.803 542.78 598.721C543.855 603.878 536.596 613.346 533.95 617.76C532.501 620.014 530.435 622.666 529.747 625.262C528.548 629.782 531.29 636.409 528.773 640.541C528.144 641.575 527.192 642.077 525.984 642.131C524.809 642.184 523.747 641.645 523.038 640.722C520.665 637.634 521.828 628.431 521.827 624.585C519.635 620.84 507.97 603.09 508.295 600.45C508.549 598.385 509.944 597.439 511.479 596.283Z" style="fill: rgb(255, 255, 255);"/>
  <path transform="scale(0.5 0.5)" d="M633.576 596.438C634.195 596.634 634.87 596.848 635.423 597.195C639.618 599.831 645.8 622.525 647.726 628.462C649.242 624 656.577 599.876 659.091 597.911C660.031 597.176 661.017 596.875 662.2 597.144C663.475 597.434 664.524 598.332 665.062 599.517C665.694 600.906 665.538 602.15 665.016 603.508C663.945 606.3 663.001 609.137 662.03 611.965C660.472 616.706 658.568 621.338 657.08 626.103C655.978 629.634 655.29 633.293 653.863 636.72C653.243 638.211 652.429 639.681 651.203 640.762C650.061 641.768 648.54 642.318 647.015 642.074C645.542 641.838 644.843 641.584 644.056 640.284C642.401 637.55 629.586 601.409 629.584 600.29C629.584 599.848 629.781 599.429 629.879 598.999C630.946 597.678 632.091 597.159 633.576 596.438Z" style="fill: rgb(255, 255, 255);"/>
  <path transform="scale(0.5 0.5)" d="M701.363 597.27C702.903 597.163 705.102 596.793 706.581 597.245C708.285 597.764 709.395 599.217 710.148 600.72C710.123 601.887 710.268 602.521 709.312 603.368C706.422 605.929 694.615 604.581 690.451 604.536L690.47 615.582C694.406 615.542 699.765 614.791 703.559 615.748C705.208 616.164 705.776 616.832 706.583 618.272C706.551 619.505 706.655 620.328 705.724 621.296C703.03 624.099 694.049 622.876 690.317 622.789L690.268 634.083L702.122 633.9C704.174 633.904 707.275 633.634 708.909 635.067C709.903 635.938 710.105 636.86 710.244 638.108C709.671 639.374 709.078 640.047 707.767 640.596C702.828 642.666 687.599 642.092 682.526 640.005C681.856 638.909 681.819 638.114 681.77 636.842C681.507 629.973 682.007 622.99 682.029 616.106C682.043 611.508 681.314 606.249 681.986 601.758C682.15 600.661 682.585 599.556 683.433 598.807C686.49 596.112 697.172 597.264 701.363 597.27Z" style="fill: rgb(255, 255, 255);"/>
  <path transform="scale(0.5 0.5)" d="M309.919 598.042C316.297 597.818 326.394 596.526 331.425 601.224C333.958 603.589 334.883 607.288 334.813 610.654C334.74 614.197 333.193 616.301 330.72 618.663C333.206 620.72 335.151 622.767 336.08 625.949C337.185 629.734 336.015 633.24 334.202 636.573Q333.638 637.171 333.041 637.737C327.548 642.899 316.549 641.472 309.573 641.229C309.088 635.401 308.167 601.636 309.919 598.042Z" style="fill: rgb(255, 255, 255);"/>
  <path transform="scale(0.5 0.5)" d="M313.639 602.532C318.306 602.424 323.402 601.913 327.612 604.325C329.06 605.154 330.457 606.438 330.757 608.161C331.215 610.781 330.057 613.593 328.546 615.678C323.98 618.095 318.889 617.42 313.9 617.297C313.478 612.406 313.637 607.439 313.639 602.532Z" style="fill: rgb(0, 21, 41);"/>
  <path transform="scale(0.5 0.5)" d="M314.01 621.531C318.882 621.432 324.656 620.806 329.007 623.435C330.546 624.365 331.666 625.653 331.88 627.516C332.173 630.067 330.767 632.687 329.32 634.665C324.806 637.401 319.135 636.598 314.072 636.451C313.817 631.505 313.999 626.486 314.01 621.531Z" style="fill: rgb(0, 21, 41);"/>
  <path transform="scale(0.5 0.5)" d="M499.12 596.946C500 596.94 500.81 596.942 501.663 597.211C502.968 597.623 503.615 598.34 504.169 599.565C504.58 600.475 504.743 601.698 504.787 602.684C505.021 607.989 504.288 613.671 504.241 619.049C504.189 624.835 504.805 630.804 504.512 636.533C504.459 637.563 504.331 638.78 503.856 639.715C503.315 640.78 502.475 641.524 501.259 641.718C500.055 641.911 498.669 641.537 497.812 640.653C495.566 638.338 495.981 622.581 495.768 618.366C493.632 622.469 491.4 628.643 487.801 631.569C486.876 632.322 485.775 632.79 484.562 632.525C480.253 631.584 475.905 621.59 473.992 617.953L473.806 631.375C473.846 632.911 473.921 634.484 473.807 636.017C473.66 638.003 472.339 640.928 470.599 642.033C469.465 642.754 469.204 642.63 468.017 642.283C466.96 641.18 466.368 640.201 465.986 638.704C465.222 635.707 465.173 607.681 465.534 603.135C465.661 601.531 466.031 599.398 467.096 598.115C467.983 597.047 468.609 597.223 469.851 597.255C475.767 600.254 481.421 615.902 484.986 622.271C488.64 615.221 492.972 601.653 499.12 596.946Z" style="fill: rgb(255, 255, 255);"/>
  <path transform="scale(0.5 0.5)" d="M566.962 621.274C569.512 616.588 576.621 601.253 579.395 598.286C580.461 597.146 581.384 596.972 582.874 597.011C584.464 597.052 585.532 597.6 586.656 598.728C588.265 602.581 587.765 634.555 586.373 638.524C585.786 640.196 585.114 641.085 583.517 641.909C582.284 641.997 581.45 641.827 580.482 640.98C578.36 639.124 578.926 634.196 578.943 631.618C578.948 626.544 578.794 621.462 578.707 616.388C576.677 620.229 572.97 629.564 569.174 631.628C568.049 632.239 567.104 632.453 565.866 631.971C562.233 630.558 558.323 620.586 556.436 616.927C556.237 621.676 557.561 637.93 554.856 640.928C553.919 641.967 552.979 642.207 551.656 642.425C550.528 642.026 550.153 641.925 549.428 640.907C548.369 639.419 548.093 637.312 547.944 635.538C547.356 628.556 548.078 621.241 548.129 614.228C548.161 609.801 547.306 605.098 548.151 600.721C548.522 598.798 549.359 598.067 550.904 596.969C551.614 597.005 552.282 597.1 552.977 597.262C554.286 597.568 555.099 598.444 555.819 599.519C557.713 602.346 558.863 605.815 560.308 608.904C562.305 613.169 564.536 617.241 566.962 621.274Z" style="fill: rgb(255, 255, 255);"/>
  <path d="M 178.419 298.796 C 180.368 298.617 182.176 298.615 183.999 299.427 C 186.298 300.453 187.879 302.461 188.735 304.79 C 189.944 308.079 189.959 312.103 188.389 315.267 C 186.961 318.143 184.803 319.684 181.853 320.71 C 179.942 320.835 178.263 320.839 176.468 320.076 C 174.056 319.051 172.285 317.03 171.399 314.583 C 170.208 311.292 170.378 306.967 171.977 303.846 C 173.379 301.108 175.575 299.688 178.419 298.796 Z" style="fill: rgb(255, 255, 255);"/>
  <path transform="scale(0.5 0.5)" d="M359.765 601.69C362.232 601.924 364.424 602.21 366.607 603.459C370.359 605.606 372.662 609.493 373.587 613.627C374.821 619.142 374.327 625.776 371.199 630.611C368.579 634.66 365.309 636.209 360.776 637.287C358.415 637.006 356.353 636.687 354.264 635.458C350.186 633.06 347.549 628.839 346.545 624.28C345.347 618.838 346.084 612.43 349.311 607.779C351.979 603.933 355.248 602.383 359.765 601.69Z" style="fill: rgb(0, 21, 41);"/>
  <path transform="scale(0.5 0.5)" d="M402.107 597.157C406.384 596.983 410.04 597.673 413.579 600.213C418.366 603.65 421.038 609.226 421.804 614.965C422.715 621.788 421.514 629.422 417.234 634.956C413.874 639.301 409.941 641.131 404.672 641.923C400.291 641.934 396.341 641.397 392.662 638.794C388.093 635.561 385.606 630.175 384.744 624.767C383.638 617.832 384.56 610.134 388.946 604.449C392.388 599.986 396.659 597.973 402.107 597.157Z" style="fill: rgb(255, 255, 255);"/>
  <path transform="scale(0.5 0.5)" d="M403.034 601.611C405.361 601.782 407.478 602.178 409.536 603.34C413.385 605.515 415.9 609.355 416.941 613.596C418.283 619.065 417.518 625.929 414.533 630.759C412.096 634.7 409.277 636.16 404.926 637.253C402.08 637.153 399.309 636.797 396.821 635.316C392.998 633.041 390.695 629.196 389.752 624.92C388.519 619.321 389.09 612.739 392.427 607.934C395.137 604.034 398.48 602.429 403.034 601.611Z" style="fill: rgb(0, 21, 41);"/>
  <path transform="scale(0.5 0.5)" d="M608.601 597.135C613.115 596.966 617.473 597.605 621.346 600.078C626 603.051 628.622 607.784 629.797 613.077C631.327 619.966 630.324 628.504 626.308 634.353C623.01 639.155 618.722 641.226 613.179 642.286C608.661 642.71 604.026 641.802 600.204 639.3C595.419 636.168 592.68 631.035 591.638 625.514C590.327 618.568 591.057 610.452 595.265 604.592C598.638 599.895 603.062 597.937 608.601 597.135Z" style="fill: rgb(255, 255, 255);"/>
  <path transform="scale(0.5 0.5)" d="M609.255 604.554C610.923 604.582 612.683 604.695 614.258 605.286C617.213 606.395 619.447 608.86 620.695 611.708C622.66 616.191 622.84 622.399 620.871 626.912C619.099 630.971 616.505 632.755 612.468 634.271C610.288 634.46 608.086 634.232 606.101 633.252C603.319 631.878 601.321 629.236 600.346 626.331C598.713 621.464 599.082 615.375 601.473 610.816C603.326 607.281 605.536 605.773 609.255 604.554Z" style="fill: rgb(0, 21, 41);"/>
  <defs>
    <linearGradient id="gradient_1" gradientUnits="userSpaceOnUse" x1="525.61157" y1="460.45377" x2="316.61731" y2="478.83392">
      <stop offset="0" stop-color="#0E6360"/>
      <stop offset="1" stop-color="#21817F"/>
    </linearGradient>
  </defs>
  <path fill="url(#gradient_1)" transform="scale(0.5 0.5)" d="M484.962 557.103C467.807 568.47 449.886 576.299 429.187 578.114C402.722 580.435 374.004 570.561 353.864 553.38C331.461 534.268 318.218 506.873 315.94 477.59Q315.837 476.259 315.767 474.926Q315.697 473.593 315.66 472.258Q315.623 470.924 315.619 469.589Q315.615 468.254 315.645 466.919Q315.674 465.585 315.736 464.251Q315.798 462.918 315.893 461.586Q315.988 460.255 316.117 458.926Q316.245 457.597 316.406 456.272Q316.567 454.946 316.76 453.626Q316.954 452.305 317.18 450.989Q317.406 449.674 317.665 448.364Q317.924 447.054 318.215 445.751Q318.506 444.449 318.83 443.153Q319.153 441.858 319.508 440.571Q319.864 439.285 320.251 438.007Q320.638 436.729 321.056 435.462Q321.475 434.194 321.924 432.937Q322.374 431.68 322.855 430.435Q323.335 429.189 323.847 427.956Q324.358 426.723 324.9 425.503Q325.442 424.283 326.014 423.077Q326.585 421.87 327.187 420.679Q327.788 419.487 328.419 418.31Q329.05 417.134 329.71 415.973Q330.369 414.813 331.057 413.669Q331.746 412.525 332.462 411.398Q333.178 410.272 333.922 409.163Q334.666 408.055 335.438 406.965Q336.209 405.876 337.007 404.805Q337.805 403.735 338.629 402.685Q339.453 401.635 340.303 400.605Q341.153 399.576 342.028 398.568C360.61 377.129 386.618 363.389 415.07 361.518C445.903 359.49 471.536 369.959 494.462 389.996C496.384 391.49 498.055 393.151 499.762 394.878C500.223 397.185 508.885 406.763 511.013 409.352C511.279 410.812 521.422 431.467 521.774 431.716C522.383 432.148 522.136 432.003 522.91 432.227L521.717 432.844C521.604 434.989 524.647 447.958 525.712 449.32C525.801 449.434 525.918 449.523 526.021 449.624C525.024 451.635 526.479 455.758 526.554 458.094C526.505 465.493 527.012 472.858 526.326 480.246Q526.076 482.676 525.723 485.093Q525.369 487.51 524.913 489.909Q524.456 492.309 523.898 494.687Q523.339 497.065 522.679 499.416Q522.02 501.768 521.26 504.09Q520.5 506.411 519.642 508.698Q518.783 510.985 517.828 513.233Q516.873 515.481 515.822 517.686Q514.771 519.891 513.627 522.05Q512.483 524.208 511.248 526.315Q510.013 528.422 508.689 530.475Q507.365 532.527 505.954 534.521Q504.543 536.516 503.049 538.448Q501.554 540.379 499.978 542.246Q498.402 544.112 496.748 545.909Q495.094 547.706 493.364 549.431Q492.402 550.379 491.426 551.313C489.333 552.753 486.281 554.934 484.962 557.103Z" style="paint-order: fill;"/>
  <path transform="scale(0.5 0.5)" d="M414.046 370.203C438.019 367.901 463.032 376.034 481.657 391.123C502.403 407.931 514.796 430.227 517.513 456.84C520.309 484.225 512.882 512.747 495.213 534.107C479.135 553.542 455.338 567.008 430.122 569.414C405.503 571.658 380.109 563.105 361.111 547.354Q360.163 546.571 359.235 545.766Q358.307 544.96 357.399 544.131Q356.491 543.303 355.604 542.452Q354.716 541.602 353.85 540.73Q352.984 539.858 352.14 538.965Q351.295 538.072 350.473 537.158Q349.651 536.245 348.851 535.311Q348.052 534.378 347.276 533.425Q346.499 532.472 345.747 531.5Q344.994 530.528 344.265 529.538Q343.537 528.549 342.833 527.541Q342.129 526.533 341.45 525.509Q340.771 524.484 340.118 523.443Q339.464 522.402 338.836 521.346Q338.209 520.289 337.607 519.217Q337.005 518.146 336.43 517.059Q335.855 515.973 335.307 514.873Q334.759 513.773 334.238 512.659Q333.717 511.546 333.224 510.42Q332.731 509.295 332.265 508.157Q331.799 507.02 331.362 505.871Q330.925 504.722 330.516 503.563Q330.107 502.404 329.726 501.236Q329.346 500.067 328.994 498.889Q328.643 497.711 328.32 496.525Q327.998 495.339 327.705 494.146Q327.411 492.952 327.148 491.752Q326.884 490.551 326.65 489.345Q326.415 488.138 326.211 486.926Q326.007 485.714 325.832 484.497Q325.658 483.281 325.513 482.06Q325.368 480.84 325.254 479.616Q325.127 478.373 325.032 477.126Q324.936 475.88 324.872 474.632Q324.807 473.384 324.774 472.134Q324.741 470.885 324.739 469.635Q324.737 468.385 324.767 467.135Q324.796 465.886 324.857 464.637Q324.917 463.389 325.009 462.143Q325.101 460.896 325.224 459.652Q325.347 458.408 325.501 457.168Q325.655 455.928 325.84 454.691Q326.025 453.455 326.241 452.224Q326.457 450.993 326.703 449.768Q326.95 448.543 327.227 447.324Q327.504 446.105 327.811 444.893Q328.119 443.682 328.457 442.479Q328.794 441.275 329.162 440.081Q329.53 438.886 329.927 437.701Q330.324 436.516 330.751 435.341Q331.178 434.167 331.635 433.003Q332.091 431.839 332.576 430.687Q333.061 429.535 333.575 428.396Q334.089 427.257 334.631 426.13Q335.173 425.004 335.743 423.892Q336.313 422.78 336.911 421.682Q337.508 420.584 338.133 419.502Q338.758 418.419 339.41 417.353Q340.062 416.287 340.74 415.237Q341.419 414.187 342.123 413.154Q342.827 412.122 343.557 411.107Q344.287 410.093 345.042 409.097Q345.798 408.101 346.577 407.124Q347.357 406.147 348.161 405.19Q348.925 404.27 349.711 403.369Q350.497 402.469 351.305 401.587Q352.113 400.706 352.942 399.844Q353.771 398.983 354.621 398.142Q355.471 397.3 356.341 396.48Q357.211 395.66 358.1 394.861Q358.99 394.063 359.899 393.286Q360.808 392.509 361.736 391.754Q362.663 391 363.609 390.268Q364.554 389.536 365.517 388.828Q366.481 388.12 367.461 387.435Q368.441 386.75 369.437 386.089Q370.434 385.428 371.446 384.792Q372.458 384.156 373.486 383.544Q374.513 382.933 375.555 382.346Q376.597 381.76 377.653 381.199Q378.709 380.639 379.779 380.104Q380.848 379.569 381.93 379.06Q383.012 378.551 384.106 378.069Q385.2 377.587 386.306 377.131Q387.411 376.676 388.527 376.248Q389.644 375.819 390.77 375.418Q391.896 375.017 393.032 374.643Q394.168 374.27 395.313 373.924Q396.457 373.578 397.61 373.26Q398.762 372.942 399.922 372.653Q401.082 372.363 402.249 372.101Q403.416 371.84 404.589 371.607Q405.761 371.374 406.939 371.17Q408.118 370.966 409.3 370.79Q410.483 370.614 411.67 370.468Q412.856 370.321 414.046 370.203Z" fill="#FEFEFE"/>
  <path fill="#001529" transform="scale(0.5 0.5)" d="M430.165 470.015L430.628 469.83C431.841 469.335 432.867 468.817 433.96 468.094C435.587 467.018 437.187 466.274 439.178 466.51C439.774 467.044 440.074 467.062 440.136 467.931C440.23 469.277 439.805 471.343 438.939 472.418C438.493 472.97 437.874 473.182 437.234 473.406C435.948 473.259 435.194 472.933 434.031 472.352C432.607 471.641 431.942 471.512 430.376 471.659L430.165 470.015Z"/>
  <path fill="#001529" transform="scale(0.5 0.5)" d="M410.888 465.366C408.611 464.326 405.377 464.159 403.537 462.48C403.528 462.27 403.503 462.06 403.51 461.849C403.568 460.086 404.299 458.815 405.587 457.648C406.472 457.438 406.81 457.209 407.712 457.525C410.126 458.373 410.765 460.556 411.749 462.69L410.888 465.366Z"/>
  <path fill="#001529" transform="scale(0.5 0.5)" d="M410.782 478.029C409.089 479.425 408.506 481.645 406.703 483.082C405.716 482.969 405.624 483.043 404.746 482.424C403.108 481.269 402.208 479.859 401.886 477.901C402.204 477.159 402.206 476.788 402.944 476.341C405.285 474.922 408.053 475.909 410.512 476.5L410.782 478.029Z"/>
  <path fill="#001529" transform="scale(0.5 0.5)" d="M423.38 479.994C423.431 480.139 423.48 480.285 423.535 480.428C424.534 483.046 428.658 485.703 427.478 488.562C427.032 489.644 425.6 491.11 424.454 491.463C423.015 491.907 422.79 491.724 421.614 490.982C420.765 489.208 420.829 488.06 421.437 486.251C421.747 485.328 422.124 484.421 422.488 483.518C422.656 482.197 422.843 481.234 423.38 479.994Z"/>
  <path fill="#001529" transform="scale(0.5 0.5)" d="M421.922 457.861L421.72 457.29C421.199 455.773 420.868 454.825 421.166 453.238C421.878 452.214 422.244 451.563 423.557 451.238C424.856 450.916 425.787 451.429 426.833 452.1C427.503 453.237 427.888 453.765 427.647 455.161C427.305 457.139 425.741 457.935 424.581 459.339C423.806 460.276 423.595 461.847 423.317 463.01C422.895 462.716 422.643 462.372 422.318 461.977C422.283 460.857 422.252 459.775 422.064 458.668L421.922 457.861Z"/>
  <path fill="#001529" transform="scale(0.5 0.5)" d="M396.059 534.557C395.869 530.821 396.281 527.256 397.631 523.751Q397.863 523.16 398.124 522.581Q398.385 522.002 398.675 521.437Q398.964 520.872 399.281 520.322Q399.598 519.771 399.942 519.238Q400.286 518.704 400.656 518.187Q401.025 517.671 401.42 517.174Q401.815 516.677 402.234 516.199Q402.653 515.722 403.095 515.266Q403.537 514.81 404.001 514.377Q404.465 513.943 404.95 513.533Q405.435 513.123 405.939 512.738Q406.444 512.352 406.967 511.992Q407.49 511.632 408.03 511.298Q408.57 510.964 409.126 510.658Q409.682 510.351 410.253 510.072Q410.823 509.793 411.407 509.543C417.254 507.053 423.33 507 429.222 509.381C434.846 511.654 440.298 516.189 442.724 521.832C442.413 521.751 442.086 521.715 441.79 521.589C441.63 521.521 441.519 521.37 441.382 521.262C440.738 520.754 440.113 520.542 439.354 520.253L440.053 519.974C439.819 518.119 439.116 517.352 437.653 516.199C430.779 510.781 426.097 508.703 417.29 509.854C410.945 510.684 406.022 513.068 401.946 518.156C396.887 524.471 397.503 533.68 396.62 534.769L396.059 534.557Z"/>
  <path fill="#175045" transform="scale(0.5 0.5)" d="M414.407 381.73C419.155 380.097 424.648 379.566 429.365 381.683C433.155 382.991 436.575 384.981 439.415 387.83C436.26 389.097 430.926 387.341 427.633 386.665C425.028 386.019 419.687 385.549 417.913 383.609L418.686 382.469L418.956 382.153L418.878 381.749C417.255 381.966 416.015 382.082 414.407 381.73Z"/>
  <path fill="#175045" transform="scale(0.5 0.5)" d="M343.212 448.069C341.623 445.42 340.829 441.812 340.655 438.735C340.275 431.992 343.119 425.497 347.756 420.69Q348.23 420.191 348.728 419.717Q349.227 419.243 349.748 418.795Q350.27 418.347 350.814 417.926Q351.358 417.505 351.923 417.112Q352.488 416.719 353.072 416.356Q353.655 415.992 354.257 415.658Q354.859 415.325 355.477 415.022Q356.094 414.72 356.727 414.449Q357.359 414.178 358.004 413.94Q358.65 413.702 359.306 413.497Q359.963 413.292 360.629 413.12Q361.295 412.948 361.969 412.811Q362.643 412.673 363.323 412.57Q364.003 412.467 364.688 412.399Q365.372 412.331 366.059 412.297Q366.746 412.264 367.434 412.265C372.611 412.301 378.33 413.895 382.074 417.672L381.757 418.739L381.306 418.312C377.259 414.551 372.713 414.508 367.454 414.752C360.253 415.085 352.987 416.461 348.028 422.2C344.189 426.641 342.56 432.35 341.794 438.041C341.764 438.26 341.724 438.476 341.697 438.694C341.313 441.9 343.686 444.904 343.212 448.069Z"/>
  <path fill="#1A4452" transform="scale(0.5 0.5)" d="M421.922 457.861L422.064 458.668C422.252 459.775 422.283 460.857 422.318 461.977C422.643 462.372 422.895 462.716 423.317 463.01C423 465.649 422.305 468.106 421.58 470.652C424.464 470.584 427.326 470.59 430.165 470.015L430.376 471.659L421.438 472.8Q422.446 476.387 423.38 479.994C422.843 481.234 422.656 482.197 422.488 483.518C421.904 479.212 420.579 477.151 417.949 473.851L410.782 478.029L410.512 476.5Q413.912 474.07 417.268 471.581C415.225 469.392 413.123 467.358 410.888 465.366L411.749 462.69C414.201 465.192 416.671 467.561 419.356 469.812C420.85 465.714 421.496 462.21 421.922 457.861Z"/>
  <path fill="#175045" transform="scale(0.5 0.5)" d="M342.392 511.04C340.553 507.45 340.352 501.903 341.043 498.013C342.258 491.159 346.347 485.246 352.053 481.332Q352.617 480.94 353.199 480.578Q353.782 480.215 354.383 479.883Q354.983 479.55 355.6 479.249Q356.216 478.948 356.848 478.679Q357.479 478.41 358.123 478.173Q358.768 477.936 359.423 477.733Q360.079 477.53 360.744 477.36Q361.409 477.19 362.082 477.055Q362.755 476.92 363.433 476.819Q364.112 476.718 364.795 476.652Q365.479 476.586 366.164 476.555Q366.85 476.524 367.536 476.528Q368.223 476.533 368.908 476.572Q369.593 476.611 370.275 476.685Q370.958 476.76 371.635 476.869Q372.313 476.978 372.984 477.121C379.481 478.524 385.32 482.285 388.914 487.912C388.679 487.821 388.441 487.739 388.209 487.641C386.298 486.83 385.283 484.639 383.478 483.844C379.054 481.895 365.726 482.466 360.889 484.201C352.382 487.251 347.995 494.569 344.565 502.359C343.528 504.716 342.589 506.648 342.83 509.283C342.847 509.469 342.858 509.655 342.875 509.841C342.931 510.443 342.924 510.311 343.043 510.989L342.392 511.04Z"/>
  <defs>
    <linearGradient id="gradient_2" gradientUnits="userSpaceOnUse" x1="404.75235" y1="388.23093" x2="414.86984" y2="399.08115">
      <stop offset="0" stop-color="#1A5746"/>
      <stop offset="1" stop-color="#3F9584"/>
    </linearGradient>
  </defs>
  <path fill="url(#gradient_2)" transform="scale(0.5 0.5)" d="M397.142 403.262C397.603 399.828 398.424 396.717 400.053 393.636C403.132 387.816 408.085 383.612 414.407 381.73C416.015 382.082 417.255 381.966 418.878 381.749L418.956 382.153L418.686 382.469L417.913 383.609C419.687 385.549 425.028 386.019 427.633 386.665C427.439 386.868 427.242 387.067 427.051 387.273C425.127 389.342 424.776 392.052 421.747 392.553C416.964 393.345 411.498 399.903 408.352 403.255C410.68 403.219 413.908 402.707 415.76 404.35C409.495 404.38 403.353 403.157 397.142 403.262Z"/>
  <path fill="#175045" transform="scale(0.5 0.5)" d="M452.728 511.812C452.346 511.033 452.033 510.273 451.756 509.449C449.552 502.887 449.739 495.897 452.931 489.677C456.14 483.424 462.199 478.154 469.015 476.254C475.054 474.57 482.028 475.4 487.486 478.498C492.617 481.411 496.914 486.63 498.527 492.355C496.877 491.272 496.352 489.507 495.484 487.766C486.521 484.556 476.341 480.7 467.008 485.04C459.191 488.676 454.987 498.088 452.366 505.869C451.819 507.492 452.598 509.033 453.207 510.523C453.075 510.979 453.001 511.419 452.728 511.812Z"/>
  <defs>
    <linearGradient id="gradient_3" gradientUnits="userSpaceOnUse" x1="423.59015" y1="391.4726" x2="429.30548" y2="408.7052">
      <stop offset="0" stop-color="#3F9388"/>
      <stop offset="1" stop-color="#4EABAA"/>
    </linearGradient>
  </defs>
  <path fill="url(#gradient_3)" transform="scale(0.5 0.5)" d="M427.633 386.665C430.926 387.341 436.26 389.097 439.415 387.83C444.055 391.93 446.034 398.471 446.395 404.513C446.482 405.981 446.534 407.479 446.246 408.929C446.189 407.653 446.048 406.566 445.751 405.312C443.143 403.751 420.406 404.478 415.76 404.35C413.908 402.707 410.68 403.219 408.352 403.255C411.498 399.903 416.964 393.345 421.747 392.553C424.776 392.052 425.127 389.342 427.051 387.273C427.242 387.067 427.439 386.868 427.633 386.665Z"/>
  <path fill="#2D807E" transform="scale(0.5 0.5)" d="M397.142 403.262C403.353 403.157 409.495 404.38 415.76 404.35C420.406 404.478 443.143 403.751 445.751 405.312C446.048 406.566 446.189 407.653 446.246 408.929C445.033 414.374 442.937 419.241 438.944 423.26Q438.52 423.686 438.075 424.09Q437.63 424.494 437.166 424.875Q436.701 425.256 436.218 425.614Q435.735 425.972 435.235 426.305Q434.735 426.638 434.219 426.945Q433.703 427.253 433.172 427.535Q432.641 427.816 432.097 428.071Q431.552 428.326 430.996 428.553Q430.44 428.78 429.873 428.979Q429.306 429.178 428.729 429.349Q428.153 429.519 427.569 429.661Q426.985 429.802 426.395 429.915Q425.805 430.027 425.209 430.109Q424.614 430.192 424.015 430.245Q423.417 430.297 422.816 430.32Q422.216 430.343 421.615 430.336C414.854 430.27 407.924 427.493 403.219 422.595C397.842 416.997 396.888 410.652 397.142 403.262Z"/>
  <path transform="scale(0.5 0.5)" d="M452.728 511.812C453.001 511.419 453.075 510.979 453.207 510.523C452.598 509.033 451.819 507.492 452.366 505.869C454.987 498.088 459.191 488.676 467.008 485.04C476.341 480.7 486.521 484.556 495.484 487.766C496.352 489.507 496.877 491.272 498.527 492.355Q498.764 492.912 498.974 493.479Q499.183 494.047 499.364 494.624Q499.545 495.202 499.697 495.787Q499.849 496.373 499.972 496.966Q500.095 497.558 500.188 498.156Q500.281 498.754 500.345 499.356Q500.408 499.958 500.442 500.562Q500.475 501.166 500.478 501.771Q500.482 502.376 500.455 502.981Q500.428 503.585 500.372 504.188Q500.315 504.79 500.228 505.389Q500.142 505.988 500.026 506.582Q499.909 507.175 499.764 507.763Q499.618 508.35 499.444 508.929Q499.269 509.509 499.066 510.079Q498.863 510.649 498.632 511.208C496.03 517.546 490.564 522.683 484.167 525.084C477.779 527.482 470.478 526.963 464.356 524.011C459.575 521.706 454.516 516.951 452.728 511.812Z" fill="#2D807E"/>
  <path fill="#2D807E" transform="scale(0.5 0.5)" d="M342.392 511.04L343.043 510.989C342.924 510.311 342.931 510.443 342.875 509.841C342.858 509.655 342.847 509.469 342.83 509.283C342.589 506.648 343.528 504.716 344.565 502.359C347.995 494.569 352.382 487.251 360.889 484.201C365.726 482.466 379.054 481.895 383.478 483.844C385.283 484.639 386.298 486.83 388.209 487.641C388.441 487.739 388.679 487.821 388.914 487.912C391.703 490.377 392.856 495.603 393.124 499.172C393.644 506.102 391.642 513.276 387.028 518.56C382.508 523.738 376.018 526.428 369.222 526.716C361.737 527.033 353.889 524.942 348.263 519.828C345.639 517.442 343.511 514.413 342.392 511.04Z"/>
  <defs>
    <linearGradient id="gradient_4" gradientUnits="userSpaceOnUse" x1="356.46524" y1="415.9021" x2="375.2612" y2="458.10635">
      <stop offset="0" stop-color="#205747"/>
      <stop offset="1" stop-color="#2E9995"/>
    </linearGradient>
  </defs>
  <path fill="url(#gradient_4)" transform="scale(0.5 0.5)" d="M343.212 448.069C343.686 444.904 341.313 441.9 341.697 438.694C341.724 438.476 341.764 438.26 341.794 438.041C342.56 432.35 344.189 426.641 348.028 422.2C352.987 416.461 360.253 415.085 367.454 414.752C372.713 414.508 377.259 414.551 381.306 418.312L381.757 418.739L382.074 417.672Q382.528 418.011 382.965 418.371Q383.402 418.73 383.822 419.111Q384.241 419.491 384.642 419.891Q385.043 420.291 385.424 420.709Q385.806 421.128 386.167 421.564Q386.528 422 386.868 422.453Q387.207 422.906 387.525 423.374Q387.843 423.843 388.139 424.326Q388.434 424.809 388.706 425.306Q388.978 425.802 389.226 426.311Q389.473 426.82 389.697 427.341Q389.92 427.861 390.119 428.391Q390.317 428.921 390.49 429.461Q390.663 430 390.81 430.547Q390.957 431.093 391.078 431.647Q391.199 432.2 391.293 432.758C392.314 439.175 390.608 445.602 386.742 450.8Q386.353 451.32 385.939 451.82Q385.525 452.319 385.086 452.798Q384.647 453.276 384.185 453.732Q383.723 454.188 383.238 454.62Q382.754 455.052 382.248 455.459Q381.742 455.866 381.217 456.248Q380.692 456.629 380.148 456.984Q379.604 457.338 379.043 457.665Q378.482 457.992 377.906 458.29Q377.329 458.589 376.738 458.858Q376.148 459.127 375.544 459.366Q374.941 459.605 374.326 459.814Q373.711 460.022 373.087 460.2Q372.462 460.377 371.83 460.523Q371.197 460.669 370.558 460.783Q369.919 460.897 369.275 460.979C362.364 461.92 354.951 460.175 349.434 455.818C346.985 453.884 344.163 451.107 343.212 448.069Z"/>
  <defs>
    <linearGradient id="gradient_5" gradientUnits="userSpaceOnUse" x1="413.07626" y1="509.84152" x2="427.79364" y2="556.24829">
      <stop offset="0" stop-color="#1E4C3E"/>
      <stop offset="1" stop-color="#2DA09B"/>
    </linearGradient>
  </defs>
  <path fill="url(#gradient_5)" transform="scale(0.5 0.5)" d="M396.059 534.557L396.62 534.769C397.503 533.68 396.887 524.471 401.946 518.156C406.022 513.068 410.945 510.684 417.29 509.854C426.097 508.703 430.779 510.781 437.653 516.199C439.116 517.352 439.819 518.119 440.053 519.974L439.354 520.253C440.113 520.542 440.738 520.754 441.382 521.262C441.519 521.37 441.63 521.521 441.79 521.589C442.086 521.715 442.413 521.751 442.724 521.832C445.777 526.314 446.129 534.006 445.045 539.22C443.739 545.509 439.814 550.941 434.467 554.443C428.847 558.125 421.442 559.622 414.875 558.047C408.378 556.488 402.431 551.946 399.132 546.145Q398.389 544.823 397.819 543.417Q397.249 542.012 396.86 540.546Q396.472 539.08 396.27 537.577Q396.069 536.074 396.059 534.557Z"/>
  <defs>
    <linearGradient id="gradient_6" gradientUnits="userSpaceOnUse" x1="466.59775" y1="415.46503" x2="482.74368" y2="460.59171">
      <stop offset="0" stop-color="#194F40"/>
      <stop offset="1" stop-color="#259494"/>
    </linearGradient>
  </defs>
  <path fill="url(#gradient_6)" transform="scale(0.5 0.5)" d="M475.308 413.195C480.798 413.417 485.716 415.122 490.048 418.565Q490.551 418.966 491.033 419.391Q491.515 419.816 491.975 420.265Q492.435 420.714 492.872 421.185Q493.31 421.656 493.723 422.149Q494.136 422.641 494.524 423.153Q494.913 423.666 495.275 424.197Q495.637 424.728 495.972 425.276Q496.308 425.824 496.615 426.389Q496.923 426.953 497.202 427.532Q497.481 428.111 497.731 428.703Q497.981 429.296 498.202 429.9Q498.422 430.503 498.611 431.118Q498.801 431.732 498.96 432.355Q499.119 432.977 499.247 433.607Q499.375 434.237 499.471 434.873Q499.568 435.508 499.632 436.148Q499.693 436.773 499.723 437.401Q499.752 438.029 499.749 438.657Q499.747 439.285 499.712 439.913Q499.677 440.54 499.609 441.165Q499.542 441.79 499.443 442.41Q499.344 443.031 499.214 443.645Q499.083 444.26 498.921 444.867Q498.759 445.474 498.566 446.072Q498.373 446.67 498.15 447.258Q497.927 447.845 497.674 448.42Q497.421 448.995 497.139 449.557Q496.856 450.118 496.546 450.664Q496.235 451.211 495.897 451.74Q495.559 452.27 495.194 452.781Q494.829 453.293 494.439 453.785Q494.048 454.277 493.633 454.749C488.637 460.438 482.606 462.441 475.285 462.797C469.026 462.497 463.583 461.194 458.675 456.986C453.748 452.762 450.881 446.689 450.434 440.245Q450.391 439.617 450.379 438.988Q450.367 438.359 450.386 437.731Q450.405 437.102 450.456 436.475Q450.506 435.848 450.588 435.224Q450.67 434.6 450.783 433.981Q450.895 433.362 451.039 432.75Q451.182 432.137 451.356 431.532Q451.529 430.928 451.733 430.332Q451.936 429.737 452.169 429.153Q452.402 428.568 452.664 427.996Q452.925 427.424 453.215 426.866Q453.505 426.307 453.822 425.764Q454.139 425.221 454.483 424.694Q454.827 424.167 455.197 423.658Q455.566 423.149 455.961 422.659Q456.356 422.169 456.774 421.699C461.823 415.936 467.899 413.774 475.308 413.195Z"/>
  <path transform="scale(0.5 0.5)" d="M494.462 389.996C510.973 381.302 532.15 373.587 549.662 366.012L646.183 323.865C651.176 337.454 657.614 350.567 663.201 363.932Q686.17 417.837 707.896 472.254Q691.667 479.248 675.327 485.98Q677.912 505.131 680.908 524.223C682.581 534.532 684.743 545.081 685.614 555.476C685.773 557.364 686.19 560.046 685.135 561.714C683.775 563.865 681.531 564.536 679.187 564.994C671.811 566.436 663.966 566.88 656.477 567.715L611.152 572.763C574.75 577.084 538.34 582.743 501.866 586.241C498.409 586.573 490.198 587.452 487.342 585.297C483.447 582.36 485.208 562.42 484.962 557.103C486.281 554.934 489.333 552.753 491.426 551.313Q492.402 550.379 493.364 549.431Q495.094 547.706 496.748 545.909Q498.402 544.112 499.978 542.246Q501.554 540.379 503.049 538.448Q504.543 536.516 505.954 534.521Q507.365 532.527 508.689 530.475Q510.013 528.422 511.248 526.315Q512.483 524.208 513.627 522.049Q514.771 519.891 515.822 517.686Q516.873 515.481 517.828 513.233Q518.783 510.985 519.642 508.698Q520.5 506.411 521.26 504.09Q522.02 501.768 522.679 499.416Q523.339 497.065 523.898 494.687Q524.456 492.309 524.913 489.909Q525.369 487.51 525.723 485.093Q526.076 482.676 526.326 480.246C527.012 472.858 526.505 465.493 526.554 458.094C526.479 455.758 525.024 451.635 526.021 449.624C525.918 449.523 525.801 449.434 525.712 449.32C524.647 447.958 521.604 434.989 521.717 432.844L522.91 432.227C522.136 432.003 522.383 432.148 521.774 431.716C521.422 431.467 511.279 410.812 511.013 409.352C508.885 406.763 500.223 397.185 499.762 394.878C498.055 393.151 496.384 391.49 494.462 389.996Z" style="fill: rgb(22, 119, 255);"/>
  <path fill="#FEFEFE" transform="scale(0.5 0.5)" d="M522.91 432.227Q531.626 431.479 540.294 430.302Q537.305 439.617 534.121 448.868C531.427 449.142 528.724 449.482 526.021 449.624C525.918 449.523 525.801 449.434 525.712 449.32C524.647 447.958 521.604 434.989 521.717 432.844L522.91 432.227Z"/>
  <path fill="#FEFEFE" transform="scale(0.5 0.5)" d="M634.03 336.431C637.874 337.75 647.435 345.553 651.261 348.306C647.092 350.736 642.612 352.584 638.142 354.375L636.027 354.937C631.082 353.2 625.345 346.146 621.782 342.313C625.917 340.436 629.994 338.515 634.03 336.431Z"/>
  <path fill="#FEFEFE" transform="scale(0.5 0.5)" d="M637.813 418.215C638.758 418.071 639.266 418.115 640.191 418.253C640.314 421.096 636.085 432.888 635.07 436.636Q628.421 437.214 621.801 438.06L618.706 438.015C618.444 436.159 623.226 423.019 624.11 420.24C628.67 419.395 633.204 418.737 637.813 418.215Z"/>
  <path fill="#FEFEFE" transform="scale(0.5 0.5)" d="M613.466 345.458C618.24 348.345 623.807 354.84 627.921 358.794L613.458 365.565C613.322 365.574 613.185 365.6 613.048 365.59C610.446 365.412 601.104 354.897 599.095 352.679Q606.165 348.838 613.466 345.458Z"/>
  <path fill="#FEFEFE" transform="scale(0.5 0.5)" d="M611.867 421.702C613.092 421.487 613.972 421.493 615.201 421.682C615.944 424.034 611.207 436.159 610.163 439.31C605.667 440.109 601.147 440.682 596.62 441.267C595.208 441.405 594.367 441.691 593.074 441.062C594.042 435.308 597.048 429.808 598.319 424.019L598.489 423.22C602.917 422.582 607.419 422.205 611.867 421.702Z"/>
  <path fill="#FEFEFE" transform="scale(0.5 0.5)" d="M590.456 424.261L590.658 424.461C590.737 427.24 585.772 439.144 584.646 442.978C579.317 443.783 573.948 444.36 568.597 445.003L568.04 444.263C568.589 438.312 571.703 431.732 573.752 426.12C579.319 425.662 584.903 424.885 590.456 424.261Z"/>
  <path fill="#FEFEFE" transform="scale(0.5 0.5)" d="M664.354 414.74C664.837 414.606 665.26 414.746 665.747 414.825C666.532 418.182 661.641 429.44 660.269 432.93C655.326 433.933 650.257 434.546 645.27 435.314C644.755 435.413 644.379 435.275 643.875 435.163C643.23 431.307 647.634 420.738 648.959 416.702Q656.65 415.67 664.354 414.74Z"/>
  <path fill="#FEFEFE" transform="scale(0.5 0.5)" d="M565.028 427.332C565.484 428.567 560.011 443.528 559.175 446.051C553.714 446.874 548.177 447.281 542.68 447.801C542.43 447.636 542.352 447.301 542.205 447.04C543.757 441.051 545.979 435.008 548.294 429.271C553.814 428.375 559.457 427.792 565.028 427.332Z"/>
  <path fill="#FEFEFE" transform="scale(0.5 0.5)" d="M514.558 388.878C519.713 392.865 524.607 397.169 529.541 401.423Q520.632 406.216 511.013 409.352C508.885 406.763 500.223 397.185 499.762 394.878C504.778 393.182 509.891 391.41 514.558 388.878Z"/>
  <path fill="#FEFEFE" transform="scale(0.5 0.5)" d="M590.539 356.015Q597.774 362.402 604.783 369.036C599.489 371.944 593.785 374.17 588.151 376.323C583.103 372.855 578.32 367.74 573.696 363.648Q582.031 359.64 590.539 356.015Z"/>
  <path fill="#FEFEFE" transform="scale(0.5 0.5)" d="M565.542 367.514C568.272 368.357 577.443 377.002 580.37 379.465C574.713 382.535 569 384.91 562.914 386.998C560.687 386.214 550.903 376.741 547.926 374.395Q556.613 370.645 565.542 367.514Z"/>
  <path fill="#FEFEFE" transform="scale(0.5 0.5)" d="M539.068 377.909C542.008 378.327 552.39 388.062 554.99 390.453Q546.643 394.502 538.118 398.159L537.856 398.272C535.728 398.074 525.424 387.782 522.753 385.548C528.316 383.232 533.774 380.793 539.068 377.909Z"/>
  <path transform="scale(0.5 0.5)" d="M664.329 493.763C665.603 493.82 666.562 493.813 667.691 494.495C668.244 495.94 667.998 496.583 667.762 498.088C666.977 497.966 666.214 497.767 665.442 497.583C664.323 496.244 664.488 495.47 664.329 493.763Z" style="fill: rgb(255, 255, 255);"/>
  <path transform="scale(0.5 0.5)" d="M662.564 477.808C664.115 478.005 664.754 477.902 665.965 478.935C666.221 480.281 665.861 480.997 665.395 482.239C663.939 481.981 663.564 481.956 662.439 481.03C661.999 479.745 662.243 479.079 662.564 477.808Z" style="fill: rgb(255, 255, 255);"/>
  <path fill="#FEFEFE" transform="scale(0.5 0.5)" d="M619.389 491.732L620.454 491.983C621.109 493.1 621.037 493.253 620.928 494.562C620.231 495.377 619.922 495.843 618.864 496.186C614.543 497.586 608.466 497.585 603.902 498.133L565.007 502.694C564.683 502.494 564.327 502.011 564.065 501.727C563.735 500.302 563.442 499.809 563.977 498.417C569.481 496.584 576.439 496.572 582.259 495.911L619.389 491.732Z"/>
  <path fill="#FEFEFE" transform="scale(0.5 0.5)" d="M623.966 505.215C624.26 505.259 624.917 505.653 625.195 505.791C625.93 506.985 626.24 507.308 626.268 508.687C626.002 508.952 625.799 509.301 625.47 509.482C624.102 510.233 562.463 517.004 555.668 517.766L554.598 517.743C554.324 517.444 553.907 517.027 553.74 516.662C553.237 515.558 553.427 515.089 553.913 514.116C555.207 513.273 556.387 512.931 557.902 512.639C564.46 511.377 571.589 511.236 578.258 510.479L623.966 505.215Z"/>
  <path fill="#FEFEFE" transform="scale(0.5 0.5)" d="M625.752 519.186C626.479 519.084 627.258 518.938 627.997 518.923C629.256 518.898 629.72 519.068 630.632 519.904C630.786 521.273 630.753 521.293 630.032 522.474C628.692 523.281 627.531 523.743 625.995 524.059C619.372 525.425 611.952 525.603 605.201 526.382C587.174 528.461 569.106 530.263 551.099 532.504C550.449 532.593 549.793 532.697 549.138 532.748C547.789 532.855 547.452 532.922 546.397 532.034C546.084 530.809 545.953 530.542 546.32 529.353C551.262 526.233 613.788 520.485 625.752 519.186Z"/>
  <path d="M 344.954 327.561 C 345.082 327.644 345.199 327.704 345.3 327.89 C 345.384 328.044 345.413 328.174 345.429 328.392 C 345.553 330.033 345.506 336.154 345.445 337.941 C 345.302 338.242 345.195 338.26 344.997 338.381 C 344.79 338.299 344.63 338.252 344.464 337.991 C 344.349 337.402 344.375 328.855 344.482 328.153 C 344.607 327.802 344.758 327.714 344.954 327.561 Z" style="fill: rgb(255, 255, 255);"/>
</svg>